<?xml version="1.0" encoding="UTF-8" ?>
<!DOCTYPE svg PUBLIC "-//W3C//DTD SVG 1.1//EN" "http://www.w3.org/Graphics/SVG/1.1/DTD/svg11.dtd">
<svg width="750pt" height="750pt" viewBox="0 0 750 750" version="1.1" xmlns="http://www.w3.org/2000/svg">
<g id="#ffffffff">
</g>
<g id="#9b99a6ff">
<path fill="#9b99a6" opacity="1.00" d=" M 532.09 53.08 C 538.51 46.68 547.98 43.81 556.92 44.59 C 565.25 45.59 572.84 50.75 577.23 57.85 C 581.75 64.69 585.87 73.21 583.39 81.55 C 580.81 90.99 573.71 99.05 564.70 102.85 C 557.51 106.00 549.33 105.07 541.87 103.51 C 543.97 99.76 546.08 95.48 545.06 91.07 C 544.42 88.25 540.77 87.22 538.37 88.39 C 535.67 89.81 533.70 92.22 531.63 94.38 C 521.97 82.91 521.75 64.20 532.09 53.08 Z" />
<path fill="#9b99a6" opacity="1.00" d=" M 401.62 182.66 C 413.97 178.61 427.09 177.52 440.02 177.85 C 446.71 177.86 452.85 180.79 459.33 181.99 C 468.67 184.97 477.59 189.70 484.92 196.26 C 487.65 199.14 490.60 201.79 493.65 204.33 C 503.56 214.03 509.76 227.39 510.71 241.24 C 511.08 245.74 510.84 250.25 510.65 254.75 C 504.09 248.11 496.28 242.88 489.23 236.80 C 476.50 227.64 462.34 220.67 448.33 213.70 C 434.32 207.04 420.07 200.89 405.61 195.29 C 400.65 193.42 395.70 191.43 390.53 190.24 C 393.07 186.34 397.31 184.06 401.62 182.66 Z" />
<path fill="#9b99a6" opacity="1.00" d=" M 26.05 279.14 C 29.64 268.02 41.02 259.27 52.95 260.53 C 64.49 261.13 74.77 270.56 76.80 281.86 C 77.50 285.01 77.36 288.25 77.10 291.45 C 72.22 288.73 65.83 287.85 60.88 290.84 C 59.34 291.65 58.17 293.22 58.36 295.03 C 58.41 300.71 62.50 305.23 66.40 308.91 C 55.76 318.66 36.80 316.02 29.36 303.60 C 24.36 296.55 23.61 287.28 26.05 279.14 Z" />
<path fill="#9b99a6" opacity="1.00" d=" M 129.40 293.35 C 136.85 289.91 145.01 286.76 153.36 288.16 C 146.63 299.19 142.01 311.35 137.44 323.40 C 129.17 346.62 123.31 370.77 120.37 395.25 C 116.40 394.15 113.67 390.96 110.92 388.13 C 104.93 381.89 101.97 373.54 99.35 365.48 C 97.06 358.88 95.88 351.94 95.48 344.99 C 95.64 339.71 96.35 334.46 96.80 329.21 C 98.85 320.98 102.90 313.06 109.09 307.19 C 115.70 302.36 121.84 296.71 129.40 293.35 Z" />
<path fill="#9b99a6" opacity="1.00" d=" M 550.05 492.05 C 558.37 486.84 567.72 481.19 577.98 483.08 C 587.44 484.54 593.23 492.79 600.00 498.64 C 600.10 500.64 600.35 502.73 601.70 504.34 C 613.68 520.95 620.36 540.86 623.60 560.94 C 625.38 573.16 620.32 585.06 614.00 595.24 C 611.42 592.41 609.05 589.23 605.73 587.26 C 595.46 585.73 584.86 595.53 586.34 606.02 C 586.79 611.04 591.13 614.34 595.00 616.93 C 581.48 628.84 564.12 636.85 545.99 637.71 C 532.68 637.68 519.54 633.00 508.97 624.95 C 503.86 621.26 499.12 617.09 494.06 613.34 C 488.13 608.41 483.53 601.56 482.03 593.94 C 480.78 584.89 483.35 575.81 486.48 567.40 C 492.47 552.73 500.82 539.09 510.38 526.48 C 521.02 512.36 535.18 501.38 550.05 492.05 Z" />
<path fill="#9b99a6" opacity="1.00" d=" M 641.47 624.12 C 652.37 619.18 664.64 613.35 676.79 617.19 C 695.88 621.71 708.54 642.97 704.28 661.93 C 702.05 673.32 695.69 684.69 685.08 690.14 C 677.34 694.72 667.83 696.76 659.04 694.31 C 648.01 692.05 639.26 683.72 633.54 674.40 C 627.05 663.80 625.87 650.43 629.88 638.71 C 631.86 632.69 635.77 627.12 641.47 624.12 Z" />
</g>
<g id="#f79727ff">
<path fill="#f79727" opacity="1.00" d=" M 538.37 88.39 C 540.77 87.22 544.42 88.25 545.06 91.07 C 546.08 95.48 543.97 99.76 541.87 103.51 C 537.46 111.10 531.74 117.85 527.63 125.61 C 516.88 145.24 505.35 164.42 493.52 183.41 C 490.76 187.76 488.21 192.27 484.92 196.26 C 477.59 189.70 468.67 184.97 459.33 181.99 C 459.15 180.94 459.44 180.04 460.20 179.30 C 472.77 163.52 485.72 148.06 498.30 132.29 C 508.83 119.15 519.87 106.43 531.63 94.38 C 533.70 92.22 535.67 89.81 538.37 88.39 Z" />
<path fill="#f79727" opacity="1.00" d=" M 60.88 290.84 C 65.83 287.85 72.22 288.73 77.10 291.45 C 87.32 297.58 99.08 300.65 109.09 307.19 C 102.90 313.06 98.85 320.98 96.80 329.21 L 96.58 330.04 C 85.76 324.21 75.76 316.86 66.40 308.91 C 62.50 305.23 58.41 300.71 58.36 295.03 C 58.17 293.22 59.34 291.65 60.88 290.84 Z" />
<path fill="#f79727" opacity="1.00" d=" M 586.34 606.02 C 584.86 595.53 595.46 585.73 605.73 587.26 C 609.05 589.23 611.42 592.41 614.00 595.24 C 622.67 605.30 634.25 612.78 641.47 624.12 C 635.77 627.12 631.86 632.69 629.88 638.71 C 623.86 635.80 618.68 631.52 613.11 627.90 C 607.24 623.96 601.03 620.58 595.00 616.93 C 591.13 614.34 586.79 611.04 586.34 606.02 Z" />
</g>
<g id="#787880ff">
<path fill="#787880" opacity="1.00" d=" M 315.44 183.24 C 331.05 182.80 346.78 182.27 362.26 184.73 C 371.84 185.70 380.98 189.03 390.53 190.24 C 395.70 191.43 400.65 193.42 405.61 195.29 C 420.07 200.89 434.32 207.04 448.33 213.70 C 462.34 220.67 476.50 227.64 489.23 236.80 C 496.28 242.88 504.09 248.11 510.65 254.75 C 516.23 261.40 523.66 266.10 529.81 272.17 C 534.08 276.58 539.18 280.09 543.40 284.55 C 556.04 297.72 568.26 311.46 577.86 327.06 C 586.95 342.03 594.60 358.09 598.92 375.11 C 604.21 398.68 603.26 423.02 603.25 447.01 C 603.43 456.69 602.02 466.30 602.09 475.98 C 601.09 483.51 601.62 491.20 600.00 498.64 C 593.23 492.79 587.44 484.54 577.98 483.08 C 567.72 481.19 558.37 486.84 550.05 492.05 C 535.18 501.38 521.02 512.36 510.38 526.48 C 500.82 539.09 492.47 552.73 486.48 567.40 C 483.35 575.81 480.78 584.89 482.03 593.94 C 483.53 601.56 488.13 608.41 494.06 613.34 C 487.62 616.11 481.54 619.71 474.89 622.00 C 458.26 627.92 440.53 630.11 422.96 630.48 C 409.95 631.15 396.18 625.05 389.36 613.68 C 384.53 605.67 388.31 595.48 393.80 588.83 C 401.56 581.03 411.56 575.98 419.83 568.79 C 424.05 565.03 428.48 561.50 432.41 557.43 C 440.55 548.18 448.83 539.00 455.71 528.74 C 468.41 509.83 478.26 488.65 482.09 466.08 C 484.69 449.66 484.99 431.87 477.25 416.70 C 469.82 402.02 458.84 389.18 445.59 379.43 C 435.51 372.07 425.88 363.99 414.80 358.14 C 401.25 350.91 387.79 343.42 373.66 337.36 C 358.20 330.11 342.51 323.10 325.94 318.78 C 313.47 315.52 300.83 312.69 287.97 311.57 C 271.92 310.39 255.64 311.14 240.00 315.12 C 228.82 317.31 218.58 322.85 209.56 329.68 C 203.16 334.29 198.63 340.93 194.53 347.56 C 188.87 358.24 185.65 370.04 183.39 381.87 C 179.47 403.33 178.14 425.16 177.09 446.91 C 177.35 457.26 177.32 467.85 173.74 477.72 C 171.47 484.28 167.58 490.75 161.37 494.25 C 156.86 496.62 151.48 495.04 147.35 492.62 C 143.85 490.49 140.36 488.34 137.14 485.80 C 133.59 483.07 132.09 478.70 130.18 474.83 C 126.10 466.31 122.47 457.44 121.03 448.06 C 119.96 442.05 120.61 435.92 119.85 429.88 C 118.36 418.35 120.60 406.80 120.37 395.25 C 123.31 370.77 129.17 346.62 137.44 323.40 C 142.01 311.35 146.63 299.19 153.36 288.16 C 163.11 272.39 172.98 256.41 186.20 243.25 C 189.94 237.64 195.91 234.27 200.35 229.32 C 232.14 201.59 273.63 186.30 315.44 183.24 Z" />
</g>
<g id="#464646ff">
<path fill="#464646" opacity="1.00" d=" M 249.98 330.96 C 254.31 328.77 260.43 332.13 260.60 337.08 C 260.65 339.69 259.45 342.10 258.41 344.43 C 255.58 350.40 252.84 356.42 250.02 362.40 C 254.91 360.31 260.37 359.04 265.64 360.47 C 272.91 362.15 279.94 367.30 281.61 374.91 C 283.11 380.61 281.16 386.41 278.71 391.54 C 274.65 400.22 270.65 408.94 266.58 417.62 C 265.24 420.62 262.51 423.54 258.94 423.23 C 254.38 423.15 250.32 418.61 252.04 414.03 C 255.90 403.84 261.40 394.32 265.35 384.17 C 266.59 380.51 267.49 375.67 264.23 372.77 C 259.01 367.59 249.61 368.45 245.31 374.38 C 241.01 380.49 238.53 387.64 235.21 394.29 C 233.29 397.97 232.17 402.22 229.24 405.28 C 225.94 408.59 219.96 407.09 217.69 403.31 C 216.15 400.53 217.27 397.27 218.48 394.60 C 227.49 375.22 236.51 355.84 245.50 336.45 C 246.54 334.32 247.79 332.08 249.98 330.96 Z" />
<path fill="#464646" opacity="1.00" d=" M 294.13 392.01 C 296.04 386.34 302.36 383.50 307.99 383.40 C 317.56 383.14 326.61 387.49 334.37 392.72 C 339.67 396.21 343.46 402.50 342.09 409.00 C 340.19 419.44 333.70 428.24 330.18 438.13 C 328.90 441.85 329.14 445.95 327.61 449.59 C 325.23 453.26 318.70 453.40 316.45 449.50 C 314.80 446.66 314.45 443.30 313.77 440.15 C 307.77 441.52 301.41 442.19 295.43 440.40 C 289.18 438.63 283.01 434.87 280.27 428.74 C 276.89 421.67 279.58 412.30 286.34 408.28 C 290.67 405.64 296.04 405.45 300.87 406.63 C 309.20 408.58 317.52 410.66 325.99 411.94 C 327.11 408.42 328.87 404.05 326.23 400.78 C 323.01 397.44 318.43 395.61 313.93 394.80 C 309.77 394.28 306.21 396.83 302.84 398.85 C 298.75 401.68 292.59 396.63 294.13 392.01 M 294.77 419.95 C 292.53 423.49 294.09 428.37 297.45 430.61 C 302.15 433.76 308.68 434.57 313.75 431.84 C 318.04 429.31 320.02 424.47 322.11 420.20 C 315.96 419.42 310.00 417.71 303.93 416.59 C 300.62 415.93 296.43 416.67 294.77 419.95 Z" />
<path fill="#464646" opacity="1.00" d=" M 361.46 406.61 C 365.29 405.18 370.21 407.81 370.82 411.94 C 371.39 414.43 370.07 416.78 369.24 419.04 C 373.86 416.92 378.99 415.29 384.12 416.14 C 393.04 417.42 400.99 424.15 403.44 432.87 C 405.85 441.02 403.93 449.81 400.18 457.24 C 396.69 464.29 391.15 470.72 383.74 473.73 C 375.01 477.31 364.34 474.88 357.79 468.17 C 354.72 464.94 353.50 460.57 351.76 456.60 C 348.46 463.38 345.44 470.30 342.16 477.09 C 340.77 479.89 338.47 482.91 335.03 482.96 C 332.30 482.78 329.38 481.36 328.14 478.83 C 327.29 475.74 328.63 472.64 329.86 469.86 C 338.85 450.56 347.81 431.23 356.79 411.92 C 357.83 409.79 359.15 407.52 361.46 406.61 M 372.25 426.19 C 364.88 428.97 360.96 436.79 359.08 443.97 C 357.12 451.04 360.85 459.66 368.22 461.67 C 374.85 463.73 381.38 459.19 384.79 453.78 C 388.53 447.84 391.39 440.24 388.75 433.31 C 386.40 426.94 378.49 423.65 372.25 426.19 Z" />
<path fill="#464646" opacity="1.00" d=" M 433.35 417.40 C 438.81 414.14 446.82 420.10 444.24 426.25 C 442.94 431.31 436.32 432.91 432.45 429.72 C 428.01 426.89 428.78 419.68 433.35 417.40 Z" />
<path fill="#464646" opacity="1.00" d=" M 426.17 436.22 C 430.04 435.24 434.55 437.97 435.22 441.98 C 435.69 444.30 434.81 446.59 433.87 448.68 C 428.33 460.51 422.83 472.37 417.35 484.22 C 415.75 488.18 413.06 493.18 408.00 492.62 C 402.73 492.50 399.70 486.44 401.93 481.91 C 407.74 468.84 413.99 455.95 419.91 442.93 C 421.18 440.12 422.90 436.96 426.17 436.22 Z" />
<path fill="#464646" opacity="1.00" d=" M 240.62 448.32 C 242.54 444.24 244.76 438.70 250.06 438.52 C 254.31 438.78 258.49 440.53 261.77 443.23 C 263.60 444.58 263.78 447.58 261.75 448.85 C 258.54 450.35 256.21 446.05 252.95 446.47 C 250.82 447.66 250.03 450.15 248.85 452.14 C 251.00 453.41 254.08 454.23 254.69 457.01 C 254.43 458.40 253.69 459.95 252.17 460.32 C 250.00 460.28 248.06 459.17 246.08 458.41 C 242.57 465.82 239.26 473.33 235.65 480.70 C 234.54 483.46 230.71 484.66 228.46 482.49 C 226.35 480.86 226.81 477.89 227.88 475.80 C 231.17 468.73 234.45 461.64 237.77 454.58 C 236.25 453.68 234.45 453.11 233.32 451.69 C 232.13 450.00 233.06 447.39 235.05 446.84 C 237.02 446.60 238.82 447.70 240.62 448.32 Z" />
<path fill="#464646" opacity="1.00" d=" M 259.97 460.88 C 266.18 459.17 272.52 461.89 277.77 465.06 C 281.30 467.11 284.58 470.72 283.97 475.11 C 282.87 483.62 276.25 490.30 275.56 498.94 C 275.51 502.50 270.06 503.44 268.33 500.62 C 267.32 498.90 267.13 496.86 266.67 494.96 C 260.11 496.43 252.24 495.67 247.71 490.18 C 243.81 485.77 245.09 478.04 250.31 475.28 C 253.87 473.21 258.09 474.19 261.83 475.15 C 265.91 476.18 270.04 477.02 274.20 477.70 C 274.56 475.51 275.92 472.74 274.12 470.86 C 272.24 468.92 269.60 467.86 266.99 467.35 C 264.28 466.84 262.05 468.74 259.77 469.84 C 258.01 471.07 255.73 469.55 254.86 467.93 C 253.77 464.57 257.05 461.73 259.97 460.88 M 255.37 487.59 C 257.65 490.55 262.03 491.42 265.47 490.31 C 268.81 489.17 270.19 485.63 271.75 482.80 C 267.47 482.17 263.32 480.76 259.01 480.43 C 255.37 480.13 253.19 484.83 255.37 487.59 Z" />
<path fill="#464646" opacity="1.00" d=" M 293.55 477.41 C 294.50 475.00 297.53 473.56 299.85 475.09 C 302.29 476.27 302.26 479.32 301.46 481.55 C 308.65 477.80 319.21 481.86 320.25 490.39 C 326.84 487.01 336.22 489.78 338.79 497.01 C 340.33 503.09 336.04 508.50 333.90 513.89 C 331.78 517.85 330.62 522.42 327.72 525.91 C 324.59 528.96 318.70 525.22 320.33 521.04 C 322.84 513.83 327.25 507.36 329.34 499.99 C 329.96 494.59 322.01 493.35 319.17 497.04 C 314.74 502.78 312.97 510.07 309.17 516.19 C 306.80 520.01 300.00 517.38 300.95 512.95 C 303.18 505.72 307.53 499.31 309.90 492.12 C 312.04 486.85 303.62 483.55 300.49 487.42 C 295.49 493.03 293.81 500.67 289.97 507.01 C 288.44 509.62 284.49 509.68 282.63 507.42 C 280.91 505.51 281.71 502.73 282.69 500.67 C 286.34 492.94 289.86 485.13 293.55 477.41 Z" />
<path fill="#464646" opacity="1.00" d=" M 355.32 489.30 C 357.64 487.36 361.61 488.36 362.71 491.19 C 364.16 494.50 360.49 498.58 357.02 497.11 C 353.59 496.29 352.61 491.48 355.32 489.30 Z" />
<path fill="#464646" opacity="1.00" d=" M 373.18 496.11 C 376.85 494.10 381.35 498.54 379.26 502.24 C 374.05 513.92 368.47 525.44 363.17 537.09 C 362.39 538.60 361.76 540.29 360.44 541.44 C 358.25 543.23 354.53 542.17 353.55 539.54 C 352.79 537.51 353.81 535.46 354.62 533.63 C 359.83 522.47 365.03 511.30 370.19 500.11 C 370.95 498.64 371.67 496.97 373.18 496.11 Z" />
<path fill="#464646" opacity="1.00" d=" M 351.33 500.36 C 355.00 498.94 358.85 503.33 356.84 506.79 C 353.15 515.05 349.27 523.23 345.43 531.42 C 344.40 534.21 340.77 535.55 338.33 533.67 C 335.95 532.10 336.44 528.82 337.57 526.63 C 340.92 519.36 344.34 512.12 347.68 504.84 C 348.56 503.15 349.33 501.01 351.33 500.36 Z" />
<path fill="#464646" opacity="1.00" d=" M 379.14 518.02 C 379.49 513.33 387.53 513.22 387.65 518.08 C 387.37 526.92 385.91 535.71 385.16 544.53 C 390.66 538.92 396.13 533.26 401.63 527.65 C 402.91 526.50 404.16 525.04 405.96 524.78 C 408.58 524.78 410.89 527.40 410.10 530.02 C 409.27 531.76 407.85 533.12 406.52 534.47 C 398.54 542.21 390.57 549.96 382.59 557.71 C 379.67 560.46 376.27 563.57 371.93 563.19 C 368.11 562.79 364.44 561.00 361.53 558.54 C 359.72 557.03 360.35 554.28 362.00 552.93 C 365.80 551.21 368.87 557.36 372.55 554.59 C 374.48 553.08 377.42 551.66 377.30 548.82 C 377.92 538.55 378.31 528.26 379.14 518.02 Z" />
</g>
</svg>
