<?xml version="1.0" encoding="utf-8"?>
<!-- Generator: Adobe Illustrator 14.0.0, SVG Export Plug-In . SVG Version: 6.00 Build 43363)  -->
<!DOCTYPE svg PUBLIC "-//W3C//DTD SVG 1.1//EN" "http://www.w3.org/Graphics/SVG/1.1/DTD/svg11.dtd">
<svg version="1.1" id="Layer_1" xmlns="http://www.w3.org/2000/svg" xmlns:xlink="http://www.w3.org/1999/xlink" x="0px" y="0px"
	 width="600px" height="600px" viewBox="0 0 600 600" style="enable-background:new 0 0 600 600;" xml:space="preserve">
<g>
	<g>
		<path style="fill-rule:evenodd;clip-rule:evenodd;fill:#F69522;" d="M268.714,232.286c-10.598-23.525-8.167-60.728-3.857-90
			c2.145-14.568,7.345-28.54,7.286-43.714c-0.069-17.821-3.232-31.091-7.714-43.286c-6.154-16.748-15.167-23.506-22.715-39.856
			c-2.779-6.022,8.918,3.602,11.143,5.57c38.558,34.136,73.132,77.616,94.713,129c9.672,23.025,21.475,55.025,12.429,84.428
			c-4.63,16.798-11.411,31.445-18.856,45.429c-6.496,8.223-12.409,19.297-19.285,25.714c-3.66-4.483-10.636-5.65-19.285-5.142
			c-6.843-6.159-9.449-16.552-14.573-24.429C280.972,262.027,274.903,247.097,268.714,232.286z"/>
		<path style="fill-rule:evenodd;clip-rule:evenodd;fill:#6A6D76;" d="M181.286,439.286c-0.739,41.66,15.048,81.264,30.429,111.855
			c5.743,11.423,25.363,48.088-6.429,36.858c-11.941-4.218-23.924-15.313-33.857-24c-29.273-25.605-46.635-73.696-50.571-122.571
			c-5.967-74.091,19.072-136.237,60-168.857c24.682-19.671,47.933-35.225,87.857-40.286C274.903,247.097,280.972,262.027,288,276
			C218.726,295.714,191.762,366.441,181.286,439.286z"/>
		<path style="fill-rule:evenodd;clip-rule:evenodd;fill:#6A6D76;" d="M359.999,234.428c71.289,23.099,119.269,72.294,129.858,156
			c5.877,46.459-3.174,89.542-16.715,122.572c-6.987,17.045-13.419,31.42-26.571,44.572c-10.807,10.805-25.069,25.893-40.286,30.855
			c-6.141,2.004-13.097,1.316-15.857-1.285c-8.978-8.465,4.661-26.958,8.573-34.286c17.423-32.655,30.392-66.919,31.285-114
			c-8.256-71.66-37.192-128.369-89.144-158.999C348.588,265.874,355.369,251.227,359.999,234.428z"/>
		<path style="fill-rule:evenodd;clip-rule:evenodd;fill:#6A6D76;" d="M302.572,300.429c8.649-0.508,15.625,0.659,19.285,5.142
			c22.048,13.032,26.561,54.674,4.714,71.143c-9.689,7.304-30.331,7.366-40.286,0.858
			C257.492,358.742,272.378,303.478,302.572,300.429z M284.571,357c7.965,14.514,34.486,14.95,42.429-1.285
			c9.321-19.05-3.981-42.13-23.143-39.429C287.252,318.626,274.059,337.84,284.571,357z"/>
		<path style="fill-rule:evenodd;clip-rule:evenodd;fill:#F69522;" d="M303.857,316.286c19.161-2.701,32.464,20.379,23.143,39.429
			c-7.943,16.235-34.464,15.799-42.429,1.285C274.059,337.84,287.252,318.626,303.857,316.286z"/>
		<path style="fill-rule:evenodd;clip-rule:evenodd;fill:#84828D;" d="M321.857,305.571c6.876-6.417,12.789-17.491,19.285-25.714
			c51.951,30.63,80.888,87.339,89.144,158.999c-33.509-19.088-72.798-42.552-124.715-41.999
			c-51.637,0.549-91.266,22.077-124.286,42.429C191.762,366.441,218.726,295.714,288,276c5.124,7.877,7.73,18.271,14.573,24.429
			c-30.194,3.048-45.081,58.313-16.287,77.143c9.955,6.508,30.597,6.445,40.286-0.858
			C348.418,360.245,343.905,318.604,321.857,305.571z"/>
	</g>
</g>
</svg>
