<?xml version="1.0" encoding="utf-8"?>
<!-- Generator: Adobe Illustrator 14.0.0, SVG Export Plug-In . SVG Version: 6.00 Build 43363)  -->
<!DOCTYPE svg PUBLIC "-//W3C//DTD SVG 1.1//EN" "http://www.w3.org/Graphics/SVG/1.1/DTD/svg11.dtd">
<svg version="1.1" xmlns="http://www.w3.org/2000/svg" xmlns:xlink="http://www.w3.org/1999/xlink" x="0px" y="0px" width="336px"
	 height="336px" viewBox="0 0 336 336" style="enable-background:new 0 0 336 336;" xml:space="preserve">
<g id="Layer_2">
	<path style="fill:#FFFFFF;" d="M199.5,206.834c0,0,6.666,89.666-8.667,97.333c0,0,33.334-10.333,36.667-56.333l4-51L199.5,206.834z
		"/>
</g>
<g id="icon_x5F_helmets_x5F_security_xA0_Image_1_">
	<g>
		<g>
			<path style="fill-rule:evenodd;clip-rule:evenodd;fill:#83828D;" d="M169.92,37.68c-0.946-3.96-6.027-4.058-7.2-0.24
				c-17.703-3.579-7.841-37.507,10.08-26.16c9.32,5.902,7.844,22.05-1.92,26.4C170.613,37.799,170.199,37.589,169.92,37.68z"/>
			<path style="fill-rule:evenodd;clip-rule:evenodd;fill:#F69522;" d="M169.92,37.68c4.996,9.084,6.701,21.458,7.92,34.32
				c-6.233-2.075-15.929-4.044-22.56-0.96c0.393-13.287,2.777-24.583,7.44-33.6C163.893,33.622,168.974,33.72,169.92,37.68z"/>
			<path style="fill-rule:evenodd;clip-rule:evenodd;fill:#83828D;" d="M177.84,72c14.214,4.667,24.801,12.959,25.44,31.2
				c-22.025-4.221-52.474-4.518-74.16,0.24c0.916-18.604,11.974-27.066,26.16-32.4C161.911,67.956,171.606,69.925,177.84,72z"/>
			<path style="fill-rule:evenodd;clip-rule:evenodd;fill:#F69522;" d="M165.6,144.96c15.705-0.12,33.324,7.177,41.28,16.08
				c4.443,4.972,5.388,11.994,0.72,17.28c-6.687,7.573-25.772,10.798-40.8,11.04c-15.063,0.242-34.383-3.309-41.52-10.561
				c-5.036-5.117-4.216-12.806,0.72-18C133.872,152.518,150.17,145.078,165.6,144.96z"/>
			<path style="fill-rule:evenodd;clip-rule:evenodd;" d="M113.04,287.04c-7.222-29.957-30.08-49.974-39.12-78.24
				c-1.903-5.951-0.806-12.235,5.28-12.72c11.258-0.896,22.047,6.847,29.28,10.56c17.021,8.739,40.328,14.138,66.24,12.96
				c12.523-0.568,23.451-3.282,33.601-6.239c10.371,22.487,4.172,55.872-4.561,75.6c-1.083,2.448-6.539,11.079-2.64,6.96
				c18.234-19.263,26.287-50.9,25.92-87.84c-0.403-4.953,7.131-7.025,11.76-8.88c8.163-3.271,22.312-6.819,20.4,6.24
				c-2.153,14.717-12.922,28.169-20.16,40.319c-3.755,6.304-7.547,12.672-11.04,19.2c-3.436,6.419-5.891,15.529-8.4,21.84
				c-9.991,11.257-23.022,18.937-37.92,25.92c-4.021,1.885-11.494,6.162-15.6,6c-4.426-0.175-10.691-3.972-14.88-6
				C136.625,305.664,122.665,298.139,113.04,287.04z"/>
			<path style="fill-rule:evenodd;clip-rule:evenodd;fill:#6B6D76;" d="M203.28,103.2c48.998,11.084,90.96,36.447,81.84,101.28
				c-3.707,26.354-12.242,49.829-22.561,70.319c-4.984,9.9-12.146,18.829-18.479,27.84c-2.711,3.857-6.421,9.062-10.32,12.96
				c-2.421,2.421-14.649,15.141-18.72,7.2c-2.497-4.87,0.69-14.507,1.44-18.72c1.173-6.591,2.169-12.286,3.119-17.28
				c2.51-6.311,4.965-15.421,8.4-21.84c3.493-6.528,7.285-12.896,11.04-19.2c7.238-12.15,18.007-25.603,20.16-40.319
				c1.911-13.06-12.237-9.512-20.4-6.24c-4.629,1.854-12.163,3.927-11.76,8.88c0.178-4.349-1.935-2.191-4.56-0.96
				c-4.044,1.896-11.404,5.046-14.16,6.24c-10.149,2.957-21.077,5.671-33.601,6.239c-25.912,1.178-49.218-4.221-66.24-12.96
				c-7.232-3.713-18.022-11.456-29.28-10.56c-6.086,0.484-7.184,6.769-5.28,12.72c9.04,28.267,31.898,48.283,39.12,78.24
				c0.805,5.023,2.035,10.523,3.12,17.28c0.958,5.966,5.715,20.772-3.84,20.64c-5.58-0.078-11.793-7.567-15.36-11.28
				c-4.325-4.501-8.439-10.506-11.52-15.12c-7.384-11.057-14.342-21.019-19.92-33.119c-5.566-12.075-9.793-25.354-13.68-39.36
				c-4.721-17.011-9.555-44.923-2.88-63.12c13.079-35.654,40.929-50.681,80.16-59.52C150.807,98.683,181.255,98.979,203.28,103.2z
				 M126,160.8c-4.937,5.194-5.756,12.883-0.72,18c7.137,7.252,26.457,10.803,41.52,10.561c15.027-0.242,34.113-3.467,40.8-11.04
				c4.668-5.286,3.724-12.309-0.72-17.28c-7.956-8.903-25.575-16.2-41.28-16.08C150.17,145.078,133.872,152.518,126,160.8z"/>
		</g>
	</g>
</g>
</svg>
