<?xml version="1.0" encoding="utf-8"?>
<!-- Generator: Adobe Illustrator 14.0.0, SVG Export Plug-In . SVG Version: 6.00 Build 43363)  -->
<!DOCTYPE svg PUBLIC "-//W3C//DTD SVG 1.1//EN" "http://www.w3.org/Graphics/SVG/1.1/DTD/svg11.dtd">
<svg version="1.1" id="Layer_1" xmlns="http://www.w3.org/2000/svg" xmlns:xlink="http://www.w3.org/1999/xlink" x="0px" y="0px"
	 width="600px" height="600px" viewBox="0 0 600 600" style="enable-background:new 0 0 600 600;" xml:space="preserve">
<g>
	<g>
		<path style="fill-rule:evenodd;clip-rule:evenodd;fill:#F69522;" d="M310.714,205.714c1.287,14.713,3.214,28.788,5.143,42.858
			c-8.206-1.434-18.187-1.713-26.142,0c1.467-13.033,2.522-29.996,5.142-43.286C299.243,199.962,306.337,201.071,310.714,205.714z"
			/>
		<path style="fill-rule:evenodd;clip-rule:evenodd;fill:#84828D;" d="M315.856,248.572c13.341,4.802,22.72,13.566,29.573,24.857
			c-25.344-5.811-62.382-4.532-85.715-0.429c7.789-10.354,16.513-19.771,30-24.428C297.67,246.858,307.65,247.138,315.856,248.572z"
			/>
		<path style="fill-rule:evenodd;clip-rule:evenodd;fill:#84828D;" d="M113.143,395.57c7.521-9.051,12.31-23.116,27.857-22.714
			c-7.159,23.73-5.108,60.253,5.143,79.716c-17.018,2.797-29.087-9.896-34.285-23.143
			C110.472,418.888,108.379,403.902,113.143,395.57z"/>
		<path style="fill-rule:evenodd;clip-rule:evenodd;fill:#84828D;" d="M463.716,372.856c15.985-0.4,21.889,12.957,28.285,23.572
			c4.25,7.84,2.53,23.185,0.856,32.571c-5.035,13.578-15.369,26.291-33.857,23.572C468.722,433.718,471.105,394.838,463.716,372.856
			z"/>
		<path style="fill-rule:evenodd;clip-rule:evenodd;fill:#84828D;" d="M69,417.857c-5.17,6.057-9.438,11.79-18.429,12.429
			c-24.926,1.77-26.922-31.688-9-40.285c12.387-5.941,27.429,3.948,29.573,15.428C60.499,403.795,57.133,418.599,69,417.857z"/>
		<path style="fill-rule:evenodd;clip-rule:evenodd;fill:#84828D;" d="M534.428,405.429c1.611-9.665,14.709-21.271,28.716-15.856
			c18.87,7.29,17.008,39.639-5.571,40.714c-8.362,0.398-15.556-4.893-21-12.429C548.505,418.315,545.068,403.908,534.428,405.429z"
			/>
		<path style="fill-rule:evenodd;clip-rule:evenodd;fill:#F69522;" d="M71.144,405.429c14.775-1.949,30.211-7.776,41.999-9.858
			c-4.763,8.332-2.671,23.317-1.285,33.859c-13.231-4.913-27.662-8.625-42.857-11.572C57.133,418.599,60.499,403.795,71.144,405.429
			z"/>
		<path style="fill-rule:evenodd;clip-rule:evenodd;fill:#F69522;" d="M302.144,57.857c1.046,4.255,3.688,10.822,5.569,16.286
			c0.968,2.805,3.235,14.942,4.716,15.857c2.668,1.649,11.715,0.241,15.856,0.429c7.499,0.34,21.153-2.231,13.716,3
			c-3.981,2.798-21.073,12.667-22.287,16.714c-1.281,4.266,3.655,12.785,4.714,16.285c1.695,5.601,3.116,9.483,5.143,15.429
			c-4.67-1.976-8.206-5.858-13.284-9.428c-2.483-1.745-10.322-9.294-13.714-9.43c-3.649-0.145-10.156,6.607-14.144,9.43
			c-1.889,1.336-12.953,9.968-13.286,9.428c-1.165-1.89,4.731-14.077,5.143-15.429c1.606-5.279,5.324-13.229,4.714-15.857
			c-0.977-4.205-19.466-14.868-24.429-18.428c-4.463-3.203,26.828-0.11,30.858-2.143c2.432-1.226,4.452-12.378,5.57-15.857
			C298.766,68.65,300.642,64.28,302.144,57.857z"/>
		<path style="fill-rule:evenodd;clip-rule:evenodd;fill:#F69522;" d="M137.571,159c1.857,3.402,4.007,10.142,5.572,15.857
			c0.778,2.845,3.738,14.604,5.143,15.429c2.623,1.537,11.579,0.254,15.429,0.428c7.558,0.344,21.049-2.233,13.713,3
			c-3.887,2.773-21.169,12.555-22.286,16.714c-2.712,10.112,10.609,20.718,9.429,31.286c-8.429-0.964-17.326-18.013-26.143-18.428
			c-8.746-0.411-19.208,16.971-27,18.857c-1.225-10.418,11.276-21.49,9-31.286c-1.877-8.083-21.535-12.741-25.714-19.286
			c9.39-4.745,24.249,3.39,32.572-1.285c2.231-1.253,4.22-11.922,5.144-15C134.546,168.223,136.244,164.525,137.571,159z"/>
		<path style="fill-rule:evenodd;clip-rule:evenodd;fill:#F69522;" d="M466.286,159c1.864,3.597,3.598,9.06,5.571,15.857
			c0.816,2.809,3.045,14.202,5.143,15.429c7.155,4.184,24.665-2.847,32.572,0.857c-3.987,3.437-7.793,5.804-12.857,9.428
			c-2.514,1.798-11.894,6.553-12.857,9.429c-3.171,9.453,10.416,20.886,9.429,31.714c-8.609-1.28-17.136-17.62-26.143-18.428
			c-8.496-0.763-19.36,17.155-27,18.857c-1.206-10.482,11.166-21.482,8.998-31.286c-1.794-8.124-21.627-12.691-25.715-19.286
			c9.659-4.397,23.41,2.906,32.145-1.285c2.538-1.217,4.557-11.577,5.572-15C463.234,168.229,464.903,164.661,466.286,159z"/>
		<path style="fill-rule:evenodd;clip-rule:evenodd;fill:#F69522;" d="M73.286,371.143c-4.594-2.148-8.98-5.881-13.286-9
			c-2.793-2.022-10.084-9.379-13.714-9.429c-4.892-0.064-20.233,14.013-25.285,17.57c-4.128,2.907,2.348-12.177,3-14.143
			c1.251-3.765,5.243-13.321,4.714-15.855c-0.871-4.178-19-14.372-23.572-18.429c-3.631-3.223,25.295,0.169,30-2.144
			c3.658-1.798,9.017-25.65,10.285-29.999c0.706-2.417,4.592,10.127,6,14.571c1.251,3.946,2.91,14.211,4.714,15.428
			c2.551,1.72,11.015,0.208,15.858,0.43c6.104,0.277,21.178-2.541,13.285,2.999c-2.928,2.055-7.21,5.557-9.428,7.286
			c-3.484,2.719-12.094,6.637-12.857,9.429c-1.046,3.83,4.428,13.494,5.143,15.857C69.853,361.356,70.504,364.506,73.286,371.143z"
			/>
		<path style="fill-rule:evenodd;clip-rule:evenodd;fill:#F69522;" d="M600,321.857c-5.779,3.962-7.764,5.606-12.429,8.998
			c-2.417,1.76-11.391,6.249-11.999,9.431c-1.189,6.216,7.275,20.993,9,27.428c2.211,8.252-9.417-3.8-12.429-6
			c-3.469-2.534-9.985-9.179-14.145-9c-4.432,0.191-8.114,5.749-13.285,9.429c-1.344,0.957-13.051,9.387-13.286,9
			c-0.891-1.465,4.04-13.105,4.716-15.428c1.434-4.938,6.037-11.506,5.143-15.429c-1.021-4.471-14.912-11.788-19.286-15
			c-1.519-1.114-6.302-4.43-6-4.716c2.652-2.502,13.904-0.345,15.856-0.427c4.17-0.177,14.031,0.986,16.286-0.43
			c0.433-0.271,2.627-7.869,2.572-7.714c0.965-2.718,1.528-5.135,2.57-8.143c0.033-0.098,4.434-15.78,5.572-15.429
			c0.439,0.135,4.354,12.87,5.143,15.429c1.252,4.06,2.495,14.524,4.715,15.856c7.269,4.362,24.608-3.053,31.285,0.856
			C600,321,600,321.429,600,321.857z"/>
		<path style="fill-rule:evenodd;clip-rule:evenodd;fill:#6A6D76;" d="M345.43,273.429c61.375,11.195,95.216,49.927,118.286,99.428
			c7.39,21.981,5.006,60.861-4.716,79.716c-11.013,19.025-17.524,39.782-33.857,54.856c-4.586,4.234-17.086,18.91-22.714,8.144
			c-4.75-9.092,9.996-31.389,12.429-37.716c9.672-25.152,6.316-58.517-8.572-75c-44.311-49.053-166.401-49.74-208.713,2.144
			c-10.691,13.108-15.262,33.23-11.571,57.429c1.377,9.033,5.433,17.419,9.428,26.144c3.224,7.037,15.993,28.811,2.571,30.855
			c-6.435,0.982-14.15-8.276-18.001-11.999c-16.034-15.508-21.63-35.547-33.856-54.856c-10.25-19.463-12.302-55.985-5.143-79.716
			c24.159-48.7,57.69-88.02,118.714-99.857C283.047,268.897,320.086,267.618,345.43,273.429z"/>
		<path style="fill-rule:evenodd;clip-rule:evenodd;fill:#F69522;" d="M492.001,396.429c8.328-1.169,30.292,8.339,42.427,9
			c10.641-1.521,14.077,12.887,2.145,12.429c-15.508,2.493-30.425,7.855-43.715,11.143
			C494.531,419.613,496.251,404.269,492.001,396.429z"/>
		<path style="fill-rule:evenodd;clip-rule:evenodd;fill:#84828D;" d="M294.857,205.286c-23.91-7.295-14.955-47.529,7.715-48
			c23.247-0.484,32.103,42.277,8.142,48.428C306.337,201.071,299.243,199.962,294.857,205.286z"/>
	</g>
</g>
</svg>
