<?xml version="1.0" encoding="UTF-8" standalone="no"?>
<!-- Generator: Adobe Illustrator 19.0.0, SVG Export Plug-In . SVG Version: 6.00 Build 0)  -->

<svg
   version="1.1"
   id="layer"
   x="0px"
   y="0px"
   viewBox="-153 -46 2235.4465 720"
   xml:space="preserve"
   sodipodi:docname="auth0-inc-logo-vector.svg"
   width="2235.4465"
   height="720"
   inkscape:version="1.1 (c68e22c387, 2021-05-23)"
   xmlns:inkscape="http://www.inkscape.org/namespaces/inkscape"
   xmlns:sodipodi="http://sodipodi.sourceforge.net/DTD/sodipodi-0.dtd"
   xmlns="http://www.w3.org/2000/svg"
   xmlns:svg="http://www.w3.org/2000/svg"><defs
   id="defs11" /><sodipodi:namedview
   id="namedview9"
   pagecolor="#ffffff"
   bordercolor="#666666"
   borderopacity="1.0"
   inkscape:pageshadow="2"
   inkscape:pageopacity="0.0"
   inkscape:pagecheckerboard="0"
   showgrid="false"
   fit-margin-top="0"
   fit-margin-left="0"
   fit-margin-right="0"
   fit-margin-bottom="0"
   inkscape:zoom="0.31901841"
   inkscape:cx="735.06731"
   inkscape:cy="362.04808"
   inkscape:window-width="1920"
   inkscape:window-height="1017"
   inkscape:window-x="1912"
   inkscape:window-y="-8"
   inkscape:window-maximized="1"
   inkscape:current-layer="layer" />
<style
   type="text/css"
   id="style2">
	.st0{fill:#EB5424;}
</style>
<path
   class="st0"
   d="M 360.33484,536.48447 288.0367,314 477.35347,176.48447 c 46.58386,142.73292 0,275.03106 -117.01863,360 z m 117.01863,-360 L 405.05534,-46 H 171.01807 l 71.92547,222.48447 c 0,0 234.40993,0 234.40993,0 z M 171.01807,-46 H -63.019202 L -134.94466,176.48447 H 99.092595 Z m -306.3354,222.48447 c -46.21118,142.73292 0,275.03106 117.018625,360 L 53.626761,314 Z m 117.018625,360 L 171.01807,674 360.33484,536.48447 171.01807,398.96894 Z"
   id="path4"
   style="stroke-width:3.72671" />
<path
   d="m 824.68267,88.90683 c -30.18634,0 -56.64597,19.75156 -65.21739,48.81988 L 655.86279,494 h 68.19876 l 30.559,-103.22981 c 0.37268,-1.11802 1.11802,-1.86336 2.23603,-1.86336 h 136.77019 c 1.11801,0 1.86335,0.74534 2.23602,1.86336 L 925.67646,494 h 67.82609 L 889.52739,137.72671 C 881.32863,108.65839 854.869,88.90683 824.68267,88.90683 Z m 54.40993,248.57143 c -0.37267,0.74534 -1.11801,0.74534 -1.86335,0.74534 H 772.88142 c -0.74534,0 -1.49068,-0.37267 -1.86335,-0.74534 -0.37267,-0.74534 -0.37267,-1.49068 0,-2.23602 l 51.80124,-179.62733 c 0.37267,-1.11802 1.11802,-1.86336 2.23603,-1.86336 1.11801,0.37267 1.49068,1.11802 1.86335,1.86336 l 52.17391,179.62733 c 0,0.74534 0,1.49068 0,2.23602 z m 316.7701,-98.75776 h 65.5901 v 255.65217 h -51.4286 l -7.0807,-21.61491 c -0.3727,-0.74534 -0.7454,-1.49068 -1.4907,-1.86335 -0.7453,-0.37267 -1.4907,-0.37267 -2.236,0 -24.2236,18.26087 -53.2919,28.32298 -83.4783,28.69565 -34.2857,0 -65.59,-20.49689 -79.0062,-52.17391 -4.472,-10.43478 -6.7081,-21.24224 -6.7081,-32.42236 V 238.7205 h 65.5901 v 172.54658 c 0,20.4969 17.1429,37.26708 37.6397,37.26708 21.2423,-1.11801 42.1118,-6.70807 60.7454,-16.77018 0.7453,-0.37268 1.4907,-1.11802 1.118,-1.86336 z m 555.2795,79.00621 v 176.64596 h -65.2173 V 321.45342 c 0,-9.68944 -4.0994,-19.37889 -11.1802,-26.08696 -7.0807,-7.08075 -16.3975,-10.80745 -26.4596,-10.80745 -21.2422,1.11801 -42.1118,6.70807 -61.118,16.77018 -0.7454,0.37267 -1.118,1.11801 -1.118,2.23603 V 494.37267 H 1520.459 V 94.49689 h 65.5901 v 160.24845 c 0,0.74534 0.3726,1.86336 1.118,2.23603 0.7453,0.37267 1.8633,0.37267 2.6087,0 22.7329,-14.90684 49.1925,-23.10559 76.0248,-23.47826 46.5839,0.37267 84.2236,37.63975 84.5963,84.2236 z m -333.913,-79.00621 h 39.8758 v 50.68323 h -39.8758 c -0.7453,0 -1.118,0.37267 -1.8634,0.74534 -0.3726,0.37267 -0.7453,1.11801 -0.7453,1.86335 v 137.14286 c 0,10.80745 8.9441,19.75155 20.1242,19.75155 0,0 0,0 0,0 5.9628,0 14.5342,0 22.3603,-1.11801 V 494 c -13.0435,3.72671 -26.4597,5.96273 -39.8758,5.59006 -37.2671,0 -67.4534,-29.81366 -67.8261,-67.08074 V 291.63975 c 0,-1.49068 -1.118,-2.23602 -2.6087,-2.60869 h -39.1304 v -50.68323 h 39.8758 c 1.4906,0 2.236,-1.11802 2.6087,-2.6087 v -84.2236 h 65.59 v 84.2236 c -0.3727,1.49068 0.3727,2.6087 1.4907,2.98137 z m 626.4596,-92.79503 c -22.3602,-35.40373 -61.118,-56.64597 -102.8571,-56.64597 -41.7391,0 -80.4969,21.24224 -102.8572,56.64597 -24.9689,36.52173 -38.3851,87.95031 -38.3851,148.69565 -2.236,52.54658 11.5528,104.34782 38.7578,149.06832 22.3603,35.40373 61.118,56.64596 102.8572,56.64596 41.7391,0 80.4969,-21.24223 102.8571,-56.64596 25.3416,-36.89441 38.3851,-88.32298 38.3851,-148.69565 0,-60.37267 -13.4162,-112.54659 -38.3851,-149.06832 z m -53.6646,268.69565 c -12.6708,23.10559 -28.6956,34.28571 -48.8198,34.28571 -19.7516,0 -35.7764,-11.92546 -48.8199,-34.28571 -17.1429,-37.63975 -25.3416,-78.63354 -23.4783,-120 -1.8633,-41.36646 6.3354,-82.73292 23.4783,-120.74534 12.6708,-23.10559 28.6956,-34.28572 48.4472,-34.28572 19.7515,0 36.1491,11.18013 48.8199,34.28572 17.1428,37.63975 25.3416,78.63354 23.4782,120 2.236,41.73913 -5.59,83.10559 -23.1056,120.74534 z"
   id="path6"
   style="stroke-width:3.72671" />
</svg>
