<svg xmlns="http://www.w3.org/2000/svg" height="40" width="125" viewBox="0 0 125 40"><path d="M110 12.93v.06c7.73.65 10 6.14 9.89 9.33-.18 9.24-7.34 16.68-18.89 17.59v.05c12.69-.76 20.12-7.32 20.28-16.72-.02-3.46-2.54-9.8-11.28-10.31z" fill="#245abc"/><path d="M101 39.8a18.92 18.92 0 0 0 17.65-18.44c0-2.92-2-7.72-8.72-8.26v.05c5.56.59 7.52 4.64 7.48 7.29-.16 8.91-7.07 18.35-16.35 19.3z" fill="#245abc"/><path d="M101.08 39.63c8.21-.85 14.82-11.41 15-20.16 0-2.37-1.51-5.68-6.2-6.21v.06c3.69.56 5 3.13 5 5.24-.15 8.57-6.59 20.07-13.66 21z" fill="#245abc"/><path d="M101.19 39.4v.07c6-.87 12.19-13.48 12.34-21.88a4 4 0 0 0-3.73-4.15v.06a2.93 2.93 0 0 1 2.43 3.18C112 24.89 106 38.51 101.19 39.4zm-3.77-3.26c.14-7.9 6.37-21.78 11-22.72v-.07c-5.8.86-12.21 13.69-12.36 21.83a3.93 3.93 0 0 0 3.74 4.22v-.06a2.8 2.8 0 0 1-2.38-3.2z" fill="#245abc"/><path d="M94.87 34.26c.15-8.35 6.86-20.07 13.68-21v-.06c-8 .85-14.83 11.57-15 20.1 0 2.38 1.56 5.9 6.2 6.28v-.06c-3.62-.47-4.92-3.15-4.88-5.26z" fill="#245abc"/><path d="M92.32 32.38c.15-8.75 7.28-18.35 16.31-19.3v-.06A19.26 19.26 0 0 0 91 31.41c0 2.92 2 7.88 8.73 8.32v-.06c-5.8-.52-7.45-4.67-7.41-7.29z" fill="#245abc"/><path d="M89.77 30.5c.16-9.19 8.08-16.71 18.94-17.58v-.06c-12.16.75-20.12 7.31-20.28 16.67-.07 3.46 2.46 9.86 11.19 10.36-7.62-.6-9.9-6.2-9.85-9.39zm-6.18-17.44c-4.19-.57-9.25 1.89-12.1 6.21l.05.07c2.7-3.88 7.26-6.19 11-5.67 2.52.34 4.25 2.25 3.9 6-.89 9.55-8.94 20.28-21.82 20.25v.07A22.63 22.63 0 0 0 88 19.7c.35-4.14-1.57-6.25-4.41-6.64z" fill="#245abc"/><path d="M84.93 19.63c.31-3.29-1.16-5-3.47-5.31-3.33-.45-7.38 1.58-9.83 5.15l.05.06c2.25-3.08 5.85-5 8.74-4.6 2 .27 3.32 1.77 3 4.67-.77 8.22-8.61 19.52-18.76 20.15C76 39.74 84.09 28.59 84.93 19.63z" fill="#245abc"/><path d="M64.8 39.55v.06C74.25 38.48 81.25 27 82 19.56c.22-2.44-.9-3.74-2.57-4-2.52-.35-5.66 1.35-7.6 4.07v.06c1.85-2.39 4.43-3.81 6.47-3.53 1.44.2 2.32 1.29 2.13 3.28-.63 6.78-7.06 18.32-15.63 20.11z" fill="#245abc"/><path d="M64.91 39.32v.09c7-1.88 13.49-14 14-20 .14-1.53-.54-2.43-1.66-2.58-1.67-.23-3.79 1-5.34 3v.06c1.29-1.54 3-2.63 4.25-2.46.81.11 1.34.82 1.23 1.95C77 24.62 71 36.72 64.91 39.32zm-1.1-6.81a20.91 20.91 0 0 0-1.58 5.12 1.91 1.91 0 0 0 1 1.62 1.88 1.88 0 0 0 .3.12v-.09a1.19 1.19 0 0 1-.34-1.08A25.43 25.43 0 0 1 65 33L78 0l-1.83.36c.1.42-3.41 9.05-3.55 9.48z" fill="#245abc"/><path d="M61.42 31.48A22.37 22.37 0 0 0 60 36.41c-.16 1.81 1.42 2.79 3.54 3.11v-.06c-1.45-.26-2.57-1-2.44-2.4a25.35 25.35 0 0 1 1.52-5l8.66-22.28c.21-.59 3.5-8.55 3-9.06l-1.78.36v.1c.07 1.94-2.18 7.25-2.64 8.5z" fill="#245abc"/><path d="M67.16 9.57L59 30.46a19.13 19.13 0 0 0-1.38 4.61c-.22 2.55 1.87 4.31 5.78 4.58a10.2 10.2 0 0 1-2.36-.55 3 3 0 0 1-2.27-3.28A20.07 20.07 0 0 1 60.23 31l8.32-21.38c.42-1.13 2.8-6.53 2.23-8.18l-1.72.34v.1c.94 1.29-1.35 6.29-1.9 7.69z" fill="#245abc"/><path d="M64.2 10l-7.54 19.44a16.07 16.07 0 0 0-1.26 4.34c-.27 3.19 2.5 5.8 8 6-4.61-.26-7.12-2.44-6.87-5.32A16.82 16.82 0 0 1 57.85 30l7.79-20c.7-1.83 2.77-6.32 1.65-7.82l-1.77.36v.1C66.72 4.29 65 8 64.2 10z" fill="#245abc"/><path d="M63.32 39.9c-6.21-.27-9.34-3.3-9-6.82A15 15 0 0 1 55.46 29l7.19-18.58c.9-2.32 2.58-5.82 1.26-7.55l-1.63.34v.1c1.39 1.56.1 4.12-.85 6.71l-7.16 18.4a13.27 13.27 0 0 0-1.11 4c-.34 3.83 3.07 7.3 10.14 7.51zm-8.18-23.42c-.13-2.47-1.59-3.6-3.36-3.6-3.22 0-6 2.54-7.75 6v-1.22c-.14-2.69-2-4.78-5.31-4.78-7 0-10.45 4.61-11.6 9.83h.06c1.22-4.89 4.48-9.3 10.77-9.3a4.4 4.4 0 0 1 4.79 4.31c.17 3.17-.88 5.64-2 8.49l-5.1 13.33H37l5.1-13.22c.34-.91.66-1.76.95-2.58 1-2.1 2.25-4.25 2.9-4.25.48 0 .63.41.66.78a11.28 11.28 0 0 1-1.51 5.67l.06.06a10.54 10.54 0 0 0 2.63-6.3c0-.69-.34-1.18-1-1.18-1.09 0-2.48 2.24-3.5 4.61.12-.38.22-.76.32-1.13 1.09-2.37 2.6-4.39 4-4.39.86 0 1.38.59 1.43 1.56.12 2.36-2 5.8-3.78 6.93l.06.06c2.42-1.08 5.08-4.63 4.93-7.53-.07-1.29-.75-2-1.83-2-1.78 0-3.5 2.07-4.69 4.63 0-.2.08-.4.11-.61 1.33-2.75 3.28-4.93 5.45-4.93 1.18 0 2.08.8 2.16 2.36.19 3.44-3.06 7.1-6 8.17l.06.06c3.61-.92 7.38-4.79 7.17-8.77-.1-1.88-1.17-2.79-2.56-2.79-2.5.01-4.73 2.25-6.12 5.25v-.49c1.59-3.22 4.1-5.66 7-5.66 1.56 0 2.85 1 3 3.18.24 4.57-4 8.44-8.32 9.41l.06.05c5-.76 9.67-4.9 9.4-10.01z" fill="#245abc"/><path d="M41.49 17.82a4 4 0 0 0-4.29-3.92c-5.58 0-8.79 4.15-9.92 8.81h.07c1.24-4.34 4.08-8.27 9.07-8.27a3.46 3.46 0 0 1 3.78 3.44c.14 2.63-1.1 5.53-2.09 8.17l-5.26 13.49h1.4l5.15-13.38c1.1-2.75 2.24-5.49 2.09-8.34z" fill="#245abc"/><path d="M39 17.93a3 3 0 0 0-3.28-3c-4.38 0-7.06 3.78-8.22 7.79h.06c1.23-3.73 3.75-7.25 7.39-7.25A2.56 2.56 0 0 1 37.69 18c.11 2.09-1.33 5.48-2.28 7.85L30 39.54h1.45l5.31-13.6c.94-2.47 2.34-5.59 2.24-8.01z" fill="#245abc"/><path d="M36.45 18.09A2.08 2.08 0 0 0 34.19 16c-3 0-5.39 3.26-6.53 6.71h.07c1.19-3.08 3.23-6.18 5.68-6.18a1.57 1.57 0 0 1 1.75 1.62c.09 1.66-1.59 5.43-2.39 7.52l-5.56 13.87h1.39l5.46-13.76c.94-2.2 2.49-5.78 2.39-7.69z" fill="#245abc"/><path d="M33.93 18.25A1.15 1.15 0 0 0 32.69 17c-1.77 0-3.68 2.79-4.83 5.69h.07c1.16-2.58 2.95-5.16 4-5.16.43 0 .71.22.74.76.06 1.13-1.82 5.37-2.58 7.2l-5.66 14h1.4l5.61-13.92c.79-1.94 2.56-5.97 2.49-7.32zM18.64 30.12l.9-1.89-3.05-15.56c-.85-4.38.17-6.29 3.61-6.95v-.06h-3.18c-.92.46-2.87 1.84-1.78 7z" fill="#245abc"/><path d="M16.84 33.88l.89-1.88-4-19.43c-.75-3.77-.43-5.73.82-6.85v-.06h-2.16c-.66 1.41-.86 2.82-.1 6.55zM15 37.63l.89-1.86-5-23.61c-.88-3.67-.68-5.35-.32-6.5H8.66a21.46 21.46 0 0 0 .76 5.88zM6.91 5.66H4.66v.06c1 1.22 1.3 2.71 2.1 6l6 27.83h1.35l-6-27.92a51.08 51.08 0 0 1-1.2-5.97zm-4.5 0H0v.06c2.2.87 3.28 2.54 4.15 6.45l5.93 27.37h1.35L5.46 12C4.43 7.22 3.35 6.34 2.41 5.66zm30.66 0C30.23 7.32 28.54 10.39 25 18l.09.05c4.09-7.66 6.42-10.71 11.7-12.3v-.09zM24.8 17.85l.09.06C28.25 10 29.13 7.79 30.5 5.72v-.06h-2.72v.08c.28 3.17-.78 6.09-2.98 12.11z" fill="#245abc"/><path d="M24.62 17.73l.09.06c2.13-7.09 2.82-10.22.94-12.13H23v.06c3 1.06 3.62 4.09 1.62 12.01zM122 14.76v1.35h-.2v-1.35h-.58v-.19h1.38v.19zm2.3 1.35V14.8l-.48 1.29h-.23l-.43-1.29v1.31h-.19l.06-1.54h.35l.4 1.29.46-1.29h.32l.06 1.54z" fill="#245abc"/></svg>