<?xml version="1.0" encoding="utf-8"?>
<!-- Generator: Adobe Illustrator 14.0.0, SVG Export Plug-In . SVG Version: 6.00 Build 43363)  -->
<!DOCTYPE svg PUBLIC "-//W3C//DTD SVG 1.1//EN" "http://www.w3.org/Graphics/SVG/1.1/DTD/svg11.dtd">
<svg version="1.1" id="Layer_1" xmlns="http://www.w3.org/2000/svg" xmlns:xlink="http://www.w3.org/1999/xlink" x="0px" y="0px"
	 width="600px" height="600px" viewBox="0 0 600 600" style="enable-background:new 0 0 600 600;" xml:space="preserve">
<g>
	<g>
		<path style="fill-rule:evenodd;clip-rule:evenodd;fill:#84828D;" d="M286.714,147.429c-31.958-7.871-23.49-56.273,8.571-62.144
			c19.681-3.603,37.612,15.16,39.43,29.144c2.308,17.767-8.472,30.411-21.001,32.143c-2.798-1.334-1.632-6.264-1.714-6.428
			C304.03,124.201,288.521,130.855,286.714,147.429z"/>
		<path style="fill-rule:evenodd;clip-rule:evenodd;fill:#84828D;" d="M538.286,333.857c4.791-33.481,57.856-24.24,56.142,12.857
			c-0.924,20.009-33.623,42.609-49.714,20.999c-2-2.686-2.438-5.312-5.142-9.429C549.922,354.879,550.985,335.266,538.286,333.857z"
			/>
		<path style="fill-rule:evenodd;clip-rule:evenodd;fill:#F69522;" d="M62.143,333.857c11.625-0.813,23.75-4.817,36-6.429
			c-8.011,10.626-7.995,35.36-2.144,47.143c-11.392-5.606-23.078-10.921-34.714-16.286
			C45.605,354.689,51.276,336.159,62.143,333.857z"/>
		<path style="fill-rule:evenodd;clip-rule:evenodd;fill:#F69522;" d="M502.714,327.429c11.995,1.725,24.152,5.557,35.572,6.429
			c12.699,1.408,11.636,21.021,1.286,24.428c-11.836,5.024-22.855,10.86-34.716,15.856
			C510.618,362.797,510.067,337.7,502.714,327.429z"/>
		<path style="fill-rule:evenodd;clip-rule:evenodd;fill:#84828D;" d="M256.286,218.143c7.546-12.026,10.106-29.037,24.857-33.857
			c9.712-6.513,28.807-6.371,38.571,0c13.165,5.406,18.278,18.865,22.714,33C318.604,214.596,282.889,213.498,256.286,218.143z"/>
		<path style="fill-rule:evenodd;clip-rule:evenodd;fill:#6A6D76;" d="M256.286,218.143c26.604-4.646,62.318-3.547,86.142-0.857
			c63.264,8.736,107.353,36.649,129.001,87c5.66,30.413,16.056,77.505,4.286,105.429c-6.194,24.573-14.897,48.53-30.001,67.714
			c-6.927,8.798-22.226,27.743-38.571,22.285c-14.645-4.89-4.291-21.767-0.857-31.714c6.959-20.152,14.767-49.321,8.572-76.285
			c-12.709-55.313-75.657-69.373-142.286-63.43c-43.823,3.908-77.65,26.641-86.571,63.43c-6.126,25.256,1.738,59.747,9.428,79.285
			c3.146,7.992,11.778,23.689-1.286,28.714c-9.334,3.589-20.774-4.056-26.143-8.142c-24.465-18.619-35.521-56.167-45.428-87.858
			c-7.535-33.586,0.993-70.42,7.286-99.428C150.598,254.169,193.635,226.349,256.286,218.143z"/>
		<path style="fill-rule:evenodd;clip-rule:evenodd;fill:#84828D;" d="M471.429,304.286c16.411,0.028,23.981,12.58,31.285,23.143
			c7.354,10.271,7.904,35.368,2.143,46.713c-4.779,9.577-7.917,17.96-16.286,22.716c-5.109,2.903-12.247,4.792-12.855,12.857
			C487.484,381.791,477.089,334.699,471.429,304.286z"/>
		<path style="fill-rule:evenodd;clip-rule:evenodd;fill:#F69522;" d="M313.714,146.571c1.543,13.028,4.785,24.357,6,37.715
			c-9.764-6.371-28.859-6.513-38.571,0c0.729-13.415,4.504-23.781,5.571-36.857c1.807-16.574,17.316-23.228,25.286-7.286
			C312.082,140.308,310.916,145.237,313.714,146.571z"/>
		<path style="fill-rule:evenodd;clip-rule:evenodd;fill:#6A6D76;" d="M375.858,391.715c0.122-0.022,1.221-0.08,1.285,0
			c5.698,6.984,8.224,21.213,10.285,29.571c6.013,24.379,4.916,60.499-12.857,69.856c-8.285,4.363-18.381,2.386-28.715,5.572
			c-8.433,2.6-11.604,13.483-25.713,14.571c-20.065,1.545-47.444-8.194-45-29.572c2.765-24.194,53.067-28.376,66.429-9.856
			c1.89,2.621,3.479,10.179,5.571,11.144c5.061,2.33,19.428-3.149,20.142-3.431c16.287-6.377,17.226-32.317,13.286-53.998
			c-1.468-8.083-9.859-27.063-5.571-33.431C375.237,391.79,375.353,391.804,375.858,391.715z"/>
		<path style="fill-rule:evenodd;clip-rule:evenodd;fill:#84828D;" d="M96,374.571c-5.852-11.782-5.867-36.517,2.144-47.143
			c7.188-10.841,14.845-23.402,31.714-23.143c-6.292,29.008-14.82,65.842-7.286,99.428c-3.483-5.695-11.301-6.443-16.286-11.572
			C101.515,387.236,99.508,381.871,96,374.571z"/>
		<path style="fill-rule:evenodd;clip-rule:evenodd;fill:#84828D;" d="M61.285,358.285c-7.462,27.075-51.7,19.221-54.856-9
			c-2.363-21.12,20.334-47.565,42.857-34.713c5.656,3.228,13.564,12.05,12.856,19.285C51.276,336.159,45.605,354.689,61.285,358.285
			z"/>
	</g>
</g>
</svg>
