<?xml version="1.0" encoding="UTF-8" ?>
<!DOCTYPE svg PUBLIC "-//W3C//DTD SVG 1.1//EN" "http://www.w3.org/Graphics/SVG/1.1/DTD/svg11.dtd">
<svg width="700pt" height="700pt" viewBox="0 0 700 700" version="1.1" xmlns="http://www.w3.org/2000/svg">
<g id="#2f313573">
<path fill="#2f3135" opacity="0.45" d=" M 318.52 117.26 C 319.15 112.64 316.98 106.94 320.76 103.30 C 321.43 103.60 322.78 104.19 323.46 104.49 C 323.37 108.73 323.37 112.96 323.46 117.20 C 328.19 116.78 334.30 119.03 337.69 114.63 C 341.26 111.01 344.75 107.31 348.56 103.93 C 353.19 108.12 357.03 113.23 362.07 116.93 C 365.61 116.84 369.15 116.43 372.70 116.48 C 372.60 112.36 372.74 108.23 373.31 104.15 C 374.56 104.10 375.81 104.08 377.07 104.10 C 378.10 108.08 377.30 112.30 377.55 116.38 C 383.29 116.55 389.03 116.68 394.77 116.84 C 396.88 118.77 393.94 121.42 391.95 121.90 C 387.11 121.67 382.29 120.89 377.44 121.30 C 377.49 125.38 377.51 129.46 377.45 133.54 C 379.47 135.64 381.50 137.73 383.55 139.80 C 386.21 135.78 389.00 131.84 391.97 128.03 C 393.01 126.74 394.14 125.30 395.90 125.02 C 397.17 125.86 397.90 127.49 396.87 128.85 C 394.09 133.95 389.92 138.14 387.04 143.18 C 388.41 146.41 392.04 148.11 393.90 151.10 C 395.26 152.63 393.57 155.88 391.49 154.58 C 388.32 152.96 386.59 149.51 383.99 147.16 C 381.63 150.46 377.95 153.57 378.21 158.01 C 378.16 163.21 378.31 168.42 378.26 173.63 C 384.17 173.54 390.09 173.82 396.00 173.53 C 399.92 173.36 403.91 172.24 407.81 173.18 C 409.83 173.69 409.59 175.98 409.85 177.59 C 406.24 177.56 402.63 177.58 399.04 177.98 C 392.14 178.75 385.19 178.23 378.28 178.37 C 378.06 187.16 378.66 195.98 377.90 204.76 C 376.45 204.92 375.01 205.07 373.58 205.24 C 373.43 196.29 373.52 187.34 373.53 178.39 C 367.90 178.39 362.25 178.58 356.65 177.79 C 359.78 176.68 362.81 175.34 365.83 173.96 C 368.40 173.66 371.00 173.60 373.59 173.54 C 373.48 171.27 373.33 169.01 373.29 166.74 C 376.05 160.81 378.24 154.56 377.83 147.91 C 378.60 146.26 379.51 144.69 380.39 143.11 C 379.39 142.76 378.40 142.39 377.42 142.01 C 374.65 135.70 371.34 129.29 365.58 125.21 C 359.96 120.10 352.10 116.55 344.43 118.37 C 332.69 121.24 323.16 130.75 319.45 142.16 C 318.35 142.41 317.25 142.66 316.16 142.92 C 317.00 144.41 317.87 145.89 318.75 147.36 C 318.49 150.01 318.48 152.67 318.77 155.32 C 317.00 152.46 314.85 149.86 312.46 147.52 C 310.02 150.07 307.79 152.89 304.86 154.92 C 303.28 154.71 302.12 153.79 302.59 152.05 C 303.99 148.43 308.28 146.84 309.84 143.27 C 306.78 138.07 302.31 133.80 299.54 128.43 C 298.14 126.55 301.60 123.90 303.02 125.92 C 306.82 130.15 309.84 135.02 313.16 139.63 C 314.99 137.98 316.80 136.30 318.60 134.61 C 318.62 130.43 318.65 126.26 318.67 122.09 C 313.96 121.99 309.25 121.98 304.54 121.97 C 304.83 120.34 304.27 117.71 306.63 117.57 C 310.55 116.89 314.56 117.33 318.52 117.26 M 348.41 110.23 C 346.31 112.35 343.82 114.25 342.67 117.11 C 346.49 117.45 350.33 117.45 354.15 117.16 C 352.54 114.61 350.62 112.28 348.41 110.23 M 365.11 121.27 C 367.66 123.82 370.21 126.37 372.77 128.90 C 372.75 126.35 372.74 123.80 372.71 121.26 C 370.18 121.25 367.64 121.25 365.11 121.27 M 323.30 122.09 C 323.35 124.66 323.38 127.23 323.40 129.80 C 325.77 127.24 328.44 124.94 330.48 122.08 C 328.09 122.01 325.69 122.02 323.30 122.09 Z" />
<path fill="#2f3135" opacity="0.45" d=" M 319.18 156.50 C 320.55 159.88 321.73 163.36 323.56 166.53 C 323.46 168.89 323.38 171.26 323.31 173.63 C 325.68 173.61 328.04 173.58 330.41 173.69 C 333.66 175.18 336.94 176.59 340.31 177.78 C 334.69 178.57 329.02 178.42 323.37 178.36 C 323.26 186.57 323.55 194.79 323.30 202.99 C 323.66 205.84 318.32 205.94 318.83 203.01 C 318.29 194.81 318.81 186.57 318.63 178.36 C 308.08 178.16 297.46 179.05 286.99 177.43 C 287.24 175.61 287.44 172.72 290.04 173.14 C 299.54 174.04 309.10 173.47 318.63 173.64 C 318.62 167.92 318.38 162.18 319.18 156.50 Z" />
<path fill="#2f3135" opacity="0.45" d=" M 534.72 172.91 C 535.39 173.14 536.73 173.62 537.40 173.86 C 537.96 200.23 537.39 226.62 537.69 252.99 C 550.82 253.00 563.96 253.01 577.10 252.99 C 577.27 244.69 576.92 236.38 577.21 228.09 C 577.03 226.08 579.49 226.45 580.72 225.85 C 581.56 234.87 580.94 243.93 581.12 252.97 C 591.74 253.15 602.38 252.74 613.00 253.20 C 612.57 254.65 613.02 257.40 610.91 257.52 C 600.99 257.88 591.05 257.40 581.12 257.71 C 581.15 272.79 581.08 287.88 581.16 302.97 C 581.20 307.66 580.17 312.29 580.22 316.99 C 580.30 332.20 580.22 347.42 580.27 362.64 C 593.44 363.76 606.66 363.58 619.88 363.39 C 619.93 358.05 619.04 352.03 622.72 347.59 C 626.07 352.44 622.78 358.41 623.78 363.82 C 625.23 363.37 627.01 363.33 627.99 361.95 C 631.61 357.71 634.38 352.77 638.53 348.96 C 639.55 349.68 640.58 350.41 641.62 351.13 C 639.12 355.49 635.95 359.40 633.03 363.48 C 634.90 363.60 636.77 363.67 638.66 363.75 C 634.00 366.33 628.80 368.14 624.86 371.86 C 620.67 376.06 617.85 381.42 616.02 387.02 C 614.37 386.33 613.26 389.05 615.21 389.36 C 614.97 389.80 614.51 390.68 614.28 391.12 C 612.60 389.95 610.63 391.12 609.28 392.21 C 605.49 391.64 601.67 391.44 597.88 390.91 C 598.62 390.93 600.10 390.98 600.85 391.00 C 599.92 389.98 598.99 388.96 598.07 387.96 C 599.03 387.06 599.99 386.17 600.97 385.28 C 603.19 387.08 605.42 388.88 607.69 390.63 C 610.09 384.19 615.79 379.80 618.79 373.72 C 619.27 371.71 619.10 369.61 619.19 367.57 C 606.25 367.39 593.29 367.94 580.40 366.61 C 580.26 372.13 580.16 377.67 580.31 383.19 C 579.05 380.90 577.65 378.70 576.27 376.49 C 576.35 373.25 576.38 370.03 576.35 366.80 C 572.06 366.65 567.73 366.53 563.49 367.34 C 560.71 366.16 557.93 364.94 555.40 363.29 C 562.20 362.21 569.08 363.14 575.90 362.60 C 576.60 361.17 576.31 359.48 576.43 357.95 C 576.29 344.63 576.45 331.31 576.34 317.99 C 576.20 312.66 577.24 307.40 577.16 302.07 C 577.05 287.27 577.21 272.47 577.09 257.67 C 563.95 257.61 550.80 257.56 537.67 257.70 C 537.57 287.12 537.66 316.54 537.62 345.96 C 537.59 351.14 537.83 356.34 537.31 361.51 C 535.88 357.57 534.77 353.52 533.22 349.62 C 533.46 346.42 533.73 343.21 533.67 340.00 C 533.47 312.53 533.87 285.05 533.47 257.58 C 507.38 257.80 481.28 257.36 455.20 257.80 C 455.29 262.25 455.29 266.71 455.12 271.16 C 453.28 270.32 451.40 269.61 449.56 268.80 C 450.77 265.21 450.58 261.41 450.46 257.69 C 440.51 257.46 430.55 257.73 420.59 257.57 C 416.16 256.10 411.45 255.46 407.25 253.35 C 421.63 252.57 436.05 253.22 450.44 252.99 C 450.51 241.66 450.51 230.32 450.43 219.00 C 450.48 217.40 450.35 215.71 451.12 214.26 C 452.51 214.29 453.90 214.40 455.30 214.50 C 455.19 227.31 455.32 240.11 455.21 252.92 C 481.37 253.05 507.52 253.06 533.68 252.92 C 533.56 230.61 533.67 208.31 533.62 186.00 C 533.63 181.62 533.11 177.10 534.72 172.91 Z" />
<path fill="#2f3135" opacity="0.45" d=" M 159.89 173.55 C 162.94 173.27 163.40 176.75 163.29 179.02 C 163.20 203.66 163.30 228.30 163.23 252.95 C 189.39 252.99 215.54 253.12 241.69 252.89 C 241.68 240.01 241.38 227.13 241.85 214.26 C 243.24 214.23 244.64 214.20 246.04 214.18 C 246.77 227.07 246.22 240.00 246.33 252.91 C 260.31 253.31 274.31 252.53 288.28 253.36 C 282.80 255.21 277.14 256.50 271.69 258.42 C 263.36 256.79 254.74 257.82 246.30 257.82 C 246.38 261.59 246.39 265.36 246.30 269.14 C 245.73 269.35 244.59 269.77 244.02 269.98 C 243.44 270.16 242.26 270.51 241.68 270.68 C 241.59 266.41 241.61 262.14 241.71 257.88 C 226.50 257.30 211.27 257.78 196.05 257.63 C 185.10 257.72 174.15 257.42 163.20 257.79 C 163.34 284.52 163.18 311.26 163.29 338.00 C 163.21 343.15 162.26 348.27 162.62 353.44 C 162.15 355.09 161.71 356.75 161.26 358.41 C 160.61 358.53 159.32 358.77 158.68 358.89 C 157.80 350.23 159.70 341.64 159.27 332.98 C 159.23 307.88 159.29 282.78 159.23 257.69 C 146.08 257.57 132.93 257.60 119.78 257.67 C 119.66 285.11 119.82 312.54 119.70 339.97 C 119.73 345.65 120.88 351.27 120.49 356.97 C 120.68 358.79 119.99 361.02 121.11 362.58 C 128.52 363.21 136.01 362.10 143.40 363.35 C 139.73 364.23 136.20 365.63 132.89 367.43 C 128.85 366.34 124.66 366.73 120.54 366.79 C 120.43 369.90 120.27 373.07 121.32 376.05 C 119.32 378.14 117.39 380.39 116.37 383.15 C 116.85 377.68 116.59 372.19 116.53 366.72 C 110.68 366.44 104.90 367.69 99.06 367.56 C 91.71 367.51 84.35 367.45 77.00 367.59 C 77.32 369.73 77.55 371.89 78.11 373.98 C 80.50 379.56 86.04 383.24 88.06 389.00 C 88.92 390.92 86.51 391.24 85.20 391.06 C 83.79 390.23 82.61 389.08 81.48 387.91 C 79.82 383.13 77.51 378.55 74.55 374.45 C 68.83 367.36 59.74 363.98 50.88 363.22 C 55.07 363.43 59.28 363.43 63.48 363.38 C 60.81 359.24 57.50 355.53 55.22 351.14 C 56.16 350.31 57.10 349.49 58.04 348.66 C 62.29 352.64 65.06 357.83 68.84 362.20 C 69.84 363.63 71.73 363.37 73.22 363.76 C 73.78 358.38 70.46 352.27 74.24 347.57 C 77.51 352.15 76.55 358.15 77.10 363.43 C 84.06 363.55 91.02 363.43 97.97 363.52 C 104.21 363.68 110.38 362.49 116.61 362.68 C 116.83 356.10 116.62 349.53 115.79 343.00 C 115.68 318.68 115.78 294.35 115.74 270.02 C 115.67 266.10 116.04 262.14 115.55 258.24 C 114.45 257.07 112.42 257.84 110.96 257.57 C 99.37 257.59 87.77 257.78 76.19 257.53 C 73.59 257.77 74.14 254.87 73.85 253.18 C 87.82 252.72 101.81 253.22 115.79 252.92 C 115.86 244.62 115.46 236.29 115.90 228.01 C 115.75 225.27 119.94 225.54 119.63 228.11 C 120.00 236.39 119.56 244.69 119.79 252.98 C 132.94 253.01 146.08 253.01 159.23 252.98 C 159.28 230.31 159.25 207.64 159.24 184.97 C 159.30 181.17 158.84 177.27 159.89 173.55 Z" />
<path fill="#2f3135" opacity="0.45" d=" M 42.17 348.06 C 44.00 344.97 48.43 347.92 45.87 350.70 C 42.58 355.40 38.36 359.38 35.40 364.33 C 37.33 364.30 39.26 364.25 41.18 364.11 C 31.52 366.31 24.31 374.81 21.78 384.11 C 19.70 393.18 20.79 403.22 25.64 411.26 C 25.19 414.95 25.15 418.67 25.32 422.39 C 28.60 422.30 31.89 422.14 35.16 422.39 C 38.23 423.89 41.36 425.36 44.71 426.10 C 45.32 426.91 45.93 427.74 46.54 428.56 C 47.54 427.96 48.54 427.38 49.56 426.82 C 52.12 426.58 54.67 426.35 57.23 426.11 C 54.53 427.88 52.14 430.07 49.77 432.25 C 51.84 435.26 54.76 438.16 54.02 442.18 C 50.28 441.73 48.24 438.39 45.93 435.84 C 40.47 440.38 35.43 445.38 29.97 449.91 C 28.51 451.59 26.58 449.91 25.08 449.26 C 30.01 442.38 37.21 437.69 43.14 431.77 C 41.64 430.02 40.30 428.10 38.54 426.60 C 34.15 425.81 29.64 426.38 25.20 426.28 C 24.99 432.73 27.36 439.73 23.41 445.55 C 21.44 439.36 21.38 432.77 21.33 426.33 C 14.22 426.17 7.11 426.31 0.00 426.22 L 0.00 422.24 C 7.07 422.25 14.14 422.30 21.20 422.21 C 21.13 416.47 21.61 410.70 21.06 404.98 C 20.11 401.93 17.50 399.78 15.71 397.21 C 14.39 395.84 13.50 393.64 11.48 393.23 C 9.29 395.58 7.53 398.77 3.99 399.14 C 2.82 394.80 6.35 391.76 8.88 388.82 C 7.08 386.49 5.40 384.08 3.83 381.60 C 5.16 380.92 6.71 379.70 8.24 380.66 C 9.74 381.79 10.82 383.38 12.01 384.82 C 14.88 381.44 17.62 377.95 20.46 374.53 C 20.50 372.45 20.54 370.37 20.58 368.30 C 14.38 368.00 8.13 368.76 1.98 367.89 C 0.55 366.72 2.70 365.38 3.07 364.20 C 8.84 364.50 14.61 364.33 20.39 364.39 C 21.11 360.77 18.72 354.75 22.90 353.01 C 25.60 356.01 24.00 360.56 24.31 364.23 C 26.23 364.26 28.55 364.80 29.83 362.93 C 34.10 358.11 37.88 352.86 42.17 348.06 M 15.17 388.90 C 16.59 390.87 18.16 392.75 19.97 394.39 C 20.60 390.65 20.75 386.85 20.32 383.08 C 18.04 384.47 16.57 386.70 15.17 388.90 Z" />
<path fill="#2f3135" opacity="0.45" d=" M 651.01 350.79 C 649.59 349.45 650.52 345.32 652.91 346.97 C 658.78 351.50 662.16 358.50 667.64 363.47 C 668.95 364.83 670.94 364.07 672.61 364.15 C 672.53 361.07 672.49 357.99 672.46 354.91 C 672.94 354.33 673.90 353.18 674.38 352.61 C 677.93 355.43 675.93 360.46 676.44 364.33 C 681.64 364.50 686.84 364.18 692.04 364.42 C 693.69 364.47 694.98 365.65 696.38 366.39 C 695.07 367.28 693.74 368.40 692.04 368.25 C 686.79 368.40 681.53 368.15 676.28 368.29 C 676.34 370.35 676.20 372.44 676.64 374.47 C 678.71 378.11 681.76 381.07 684.33 384.36 C 686.59 382.44 688.76 379.96 691.99 379.97 C 692.08 383.48 689.90 386.26 687.87 388.89 C 689.89 391.66 693.48 394.10 693.16 397.90 C 692.24 398.85 690.79 399.13 689.80 398.15 C 687.81 396.56 686.35 394.45 684.78 392.49 C 681.85 396.39 678.86 400.25 675.64 403.91 C 675.61 410.01 675.59 416.11 675.67 422.21 C 682.14 422.38 688.60 422.12 695.07 422.27 C 697.01 421.91 697.77 423.95 698.91 425.08 C 691.18 427.51 682.92 425.71 674.96 426.25 C 674.70 433.26 675.70 440.54 672.89 447.19 C 670.98 440.37 670.56 433.30 670.85 426.26 C 666.64 426.24 662.43 426.25 658.23 426.27 C 656.69 428.17 655.19 430.10 653.70 432.04 C 658.52 436.28 663.36 440.50 668.14 444.79 C 669.44 446.22 671.52 447.65 670.95 449.87 C 668.51 452.04 665.95 449.26 664.12 447.73 C 659.80 443.58 655.12 439.82 650.87 435.59 C 648.97 437.81 647.22 440.25 644.79 441.93 C 643.33 442.30 642.51 441.20 641.98 440.05 C 643.26 437.20 645.27 434.77 647.03 432.22 C 644.63 430.12 642.26 427.98 639.67 426.11 C 642.32 426.43 644.96 426.88 647.63 427.03 C 648.14 429.86 652.42 428.89 651.19 426.11 C 654.93 425.62 658.33 423.92 661.68 422.27 C 665.00 422.15 668.32 422.31 671.65 422.41 C 671.76 418.44 671.68 414.48 671.80 410.51 C 673.67 406.23 675.58 401.76 675.52 397.00 C 675.44 391.63 676.08 386.04 673.94 380.96 C 670.72 372.64 663.41 366.44 654.94 363.89 C 657.10 364.16 659.29 364.27 661.48 364.37 C 658.40 359.53 654.22 355.52 651.01 350.79 M 671.25 368.15 C 670.92 369.56 671.45 370.03 672.83 369.56 C 673.14 368.14 672.61 367.67 671.25 368.15 M 675.76 382.13 C 675.58 386.53 675.71 390.94 676.05 395.33 C 678.07 393.26 679.94 391.05 681.72 388.77 C 679.88 386.43 678.05 384.05 675.76 382.13 Z" />
<path fill="#2f3135" opacity="0.45" d=" M 87.66 392.15 C 90.22 389.55 93.05 387.23 96.04 385.14 C 96.91 386.08 97.78 387.03 98.66 387.97 C 97.70 389.06 96.76 390.17 95.81 391.27 C 93.10 391.57 90.38 391.86 87.66 392.15 Z" />
<path fill="#2f3135" opacity="0.45" d=" M 241.72 418.17 C 243.22 414.83 244.85 411.54 246.77 408.42 C 247.54 423.66 246.93 438.93 247.13 454.18 C 314.67 454.25 382.23 454.41 449.78 454.11 C 449.89 438.96 449.37 423.79 450.06 408.66 C 452.04 411.38 453.44 414.45 454.75 417.55 C 454.15 427.35 454.69 437.18 454.45 447.00 C 454.58 449.34 454.03 451.88 454.95 454.09 C 457.93 454.42 460.94 454.27 463.94 454.25 C 464.10 455.82 464.24 457.40 464.33 458.99 C 461.15 458.97 457.96 458.83 454.79 459.12 C 454.26 461.36 454.45 463.68 454.45 465.97 C 454.70 482.50 454.16 499.05 454.74 515.57 C 453.37 520.60 452.21 525.70 450.36 530.58 C 450.01 527.71 449.67 524.84 449.70 521.95 C 449.83 500.99 449.66 480.03 449.79 459.08 C 382.23 458.92 314.67 459.00 247.11 459.03 C 247.14 476.04 247.12 493.05 247.12 510.07 C 247.06 517.17 247.42 524.30 246.64 531.38 C 244.30 525.48 243.37 519.16 241.32 513.17 C 242.79 509.97 242.40 506.41 242.40 503.01 C 242.31 488.34 242.45 473.67 242.33 459.00 C 239.16 458.99 235.99 458.99 232.82 459.01 C 231.90 466.02 232.74 473.07 232.79 480.10 C 231.73 471.32 231.93 462.43 232.70 453.63 C 235.82 454.54 239.09 454.32 242.30 454.23 C 242.49 445.16 242.27 436.09 242.42 427.03 C 242.50 424.06 242.25 421.09 241.72 418.17 Z" />
<path fill="#2f3135" opacity="0.45" d=" M 616.08 422.22 C 616.53 419.64 616.98 417.06 617.25 414.47 C 618.64 415.40 620.05 416.36 621.38 417.40 C 620.95 419.01 620.52 420.64 620.10 422.26 C 623.37 422.41 626.62 422.76 629.90 422.80 C 631.96 424.02 634.19 424.93 636.46 425.71 C 631.05 426.45 625.59 426.32 620.15 426.21 C 619.93 431.84 619.37 437.45 619.08 443.08 C 619.30 445.06 617.12 445.60 615.92 446.64 C 614.18 439.89 616.30 433.04 616.02 426.22 C 612.68 426.23 609.31 426.53 606.01 426.02 C 604.56 425.60 604.17 423.83 603.24 422.85 C 607.47 422.11 611.79 422.16 616.08 422.22 Z" />
<path fill="#2f3135" opacity="0.45" d=" M 76.56 417.20 C 77.63 416.57 78.72 415.95 79.82 415.37 C 79.93 417.64 80.07 419.91 80.21 422.19 C 84.70 422.21 89.23 422.02 93.66 422.91 C 92.75 423.87 92.38 425.53 91.00 425.99 C 87.71 426.53 84.35 426.23 81.03 426.21 C 80.47 431.49 81.30 436.74 81.68 442.00 C 82.01 443.92 80.85 445.53 79.95 447.10 C 79.22 446.40 78.49 445.70 77.77 445.00 C 77.55 438.72 76.62 432.49 76.79 426.20 C 71.43 426.35 66.06 426.38 60.73 425.75 C 63.68 424.51 66.52 423.05 69.36 421.59 C 71.49 421.96 73.64 422.20 75.80 422.42 C 76.03 420.67 76.23 418.93 76.56 417.20 Z" />
<path fill="#2f3135" opacity="0.45" d=" M 116.79 418.76 C 118.28 420.12 119.52 421.71 120.86 423.21 C 120.16 433.53 120.59 443.89 120.60 454.23 C 133.21 454.27 145.82 454.29 158.42 454.22 C 158.53 450.23 158.52 446.25 158.37 442.26 C 157.21 441.85 156.06 441.44 154.91 441.02 C 156.62 441.35 158.39 441.45 160.08 441.97 C 161.21 442.96 161.96 444.31 162.55 445.69 C 162.60 448.36 162.48 451.03 162.41 453.71 C 163.54 454.04 164.67 454.39 165.80 454.74 C 166.30 456.12 166.80 457.49 167.31 458.88 C 165.73 458.93 164.15 458.99 162.58 459.06 C 162.48 485.67 162.46 512.28 162.59 538.89 C 179.27 538.65 195.97 539.31 212.62 538.56 C 214.23 540.19 215.81 541.87 217.51 543.43 C 199.20 543.90 180.88 543.44 162.57 543.68 C 162.42 575.13 162.59 606.59 162.50 638.04 C 162.86 640.15 160.45 641.78 158.82 640.13 C 158.11 636.12 158.56 632.03 158.48 627.99 C 158.45 599.88 158.56 571.77 158.42 543.66 C 146.01 543.69 133.59 543.42 121.19 543.81 C 121.34 561.22 121.21 578.64 121.27 596.05 C 121.47 598.06 120.37 599.77 119.28 601.35 C 118.47 600.00 117.26 598.73 117.37 597.05 C 117.34 579.27 117.43 561.49 117.34 543.70 C 112.54 543.54 107.75 543.69 102.95 543.66 C 101.63 543.55 100.13 543.72 99.01 542.85 C 98.92 541.47 99.26 539.27 100.98 539.15 C 106.39 538.49 111.87 539.02 117.31 538.89 C 117.81 532.57 116.43 526.31 116.59 520.00 C 116.71 499.70 116.53 479.41 116.69 459.12 C 104.76 458.77 92.81 459.22 80.89 458.92 C 78.34 459.33 77.93 456.41 77.15 454.72 C 89.76 453.62 102.45 454.65 115.09 454.19 C 117.07 454.56 116.50 452.10 116.68 450.99 C 116.69 440.25 116.44 429.50 116.79 418.76 M 120.58 459.00 C 120.41 479.32 120.59 499.64 120.50 519.96 C 120.23 526.27 121.75 532.50 121.23 538.82 C 133.60 538.98 145.96 538.78 158.33 538.92 C 158.66 512.29 158.44 485.64 158.44 459.00 C 145.82 458.99 133.20 459.00 120.58 459.00 Z" />
<path fill="#2f3135" opacity="0.45" d=" M 576.22 422.32 C 577.42 421.07 578.60 419.78 579.81 418.54 C 580.76 430.36 580.07 442.24 580.20 454.09 C 592.14 454.55 604.11 454.00 616.05 454.33 C 617.87 454.14 618.67 455.98 619.81 457.02 C 618.34 457.90 616.89 459.13 615.06 458.99 C 603.45 459.10 591.83 458.87 580.22 459.07 C 580.30 467.05 580.21 475.03 580.30 483.01 C 580.37 488.01 579.37 492.96 579.48 497.96 C 579.62 511.60 579.38 525.25 579.61 538.89 C 585.05 539.05 590.55 538.42 595.96 539.20 C 598.41 539.53 597.43 542.19 596.95 543.74 C 591.16 543.55 585.37 543.61 579.59 543.67 C 579.43 561.13 579.53 578.59 579.55 596.05 C 579.74 598.05 578.71 599.80 577.73 601.46 C 576.50 599.86 575.37 598.06 575.61 595.95 C 575.68 578.58 575.54 561.21 575.70 543.83 C 563.24 543.50 550.75 543.46 538.29 543.85 C 538.50 572.89 538.28 601.93 538.40 630.97 C 538.48 634.57 538.68 638.32 537.04 641.66 C 536.01 640.56 534.16 639.81 534.43 638.02 C 534.26 606.58 534.49 575.12 534.32 543.68 C 515.80 543.52 497.27 543.73 478.75 543.57 C 480.50 542.09 482.25 540.61 483.90 539.02 C 500.69 538.69 517.49 538.95 534.29 538.89 C 534.45 512.26 534.38 485.64 534.33 459.02 C 532.57 458.99 530.82 458.96 529.08 458.94 C 529.56 457.52 529.99 456.08 530.47 454.67 C 531.61 454.44 532.75 454.22 533.90 454.00 C 533.72 451.58 533.56 449.17 533.43 446.75 C 534.38 444.62 535.69 442.58 537.66 441.26 C 537.70 445.17 537.31 449.10 537.87 452.99 C 539.03 454.73 541.33 454.09 543.10 454.30 C 554.18 454.19 565.26 454.34 576.34 454.20 C 576.34 443.57 576.53 432.94 576.22 422.32 M 538.29 459.13 C 538.46 485.69 538.36 512.25 538.34 538.81 C 550.78 538.91 563.23 538.94 575.68 538.79 C 575.58 523.87 575.63 508.95 575.64 494.03 C 577.02 482.41 576.16 470.68 576.33 459.01 C 563.65 459.06 550.96 458.84 538.29 459.13 Z" />
<path fill="#2f3135" opacity="0.45" d=" M 449.99 536.65 C 450.51 540.91 451.38 545.40 454.67 548.46 C 454.27 561.29 454.61 574.13 454.49 586.97 C 454.29 592.53 455.38 598.35 453.09 603.63 C 451.37 603.06 449.21 602.31 449.76 600.02 C 449.72 581.26 449.74 562.48 449.76 543.71 C 382.21 543.56 314.66 543.59 247.11 543.69 C 247.17 560.48 247.07 577.26 247.16 594.05 C 247.12 596.90 247.40 599.83 246.67 602.63 C 245.45 603.81 243.88 602.73 242.76 602.03 C 241.91 597.41 242.52 592.66 242.38 587.99 C 242.24 574.90 242.66 561.80 242.14 548.72 C 244.00 545.60 246.13 542.53 246.77 538.86 C 314.39 538.81 382.01 539.03 449.63 538.75 C 449.72 538.23 449.90 537.18 449.99 536.65 Z" />
</g>
<g id="#6a6d76ff">
<path fill="#6a6d76" opacity="1.00" d=" M 344.43 118.37 C 352.10 116.55 359.96 120.10 365.58 125.21 C 371.34 129.29 374.65 135.70 377.42 142.01 C 377.67 143.96 377.80 145.93 377.83 147.91 C 378.24 154.56 376.05 160.81 373.29 166.74 C 370.92 169.26 368.55 171.81 365.83 173.96 C 362.81 175.34 359.78 176.68 356.65 177.79 C 356.04 177.80 354.80 177.81 354.19 177.82 C 354.58 183.55 356.03 189.11 357.72 194.58 C 359.00 200.16 362.62 205.30 361.54 211.26 C 369.13 215.18 377.65 217.92 383.61 224.35 C 386.83 228.10 391.02 230.92 393.85 235.02 C 397.44 240.30 401.57 246.16 400.32 252.92 C 402.63 253.07 404.93 253.29 407.25 253.35 C 411.45 255.46 416.16 256.10 420.59 257.57 C 430.54 260.49 440.10 264.60 449.56 268.80 C 451.40 269.61 453.28 270.32 455.12 271.16 C 471.05 279.06 485.96 288.98 499.41 300.61 C 503.96 305.07 508.62 309.44 512.44 314.56 C 521.62 324.78 527.15 337.47 533.22 349.62 C 534.77 353.52 535.88 357.57 537.31 361.51 C 543.43 360.61 549.42 362.27 555.40 363.29 C 557.93 364.94 560.71 366.16 563.49 367.34 C 568.37 369.43 572.53 372.78 576.27 376.49 C 577.65 378.70 579.05 380.90 580.31 383.19 C 580.87 384.73 581.39 386.29 581.95 387.84 C 587.45 387.75 592.48 390.32 597.88 390.91 C 601.67 391.44 605.49 391.64 609.28 392.21 C 610.92 392.51 613.43 393.11 614.28 391.12 C 614.51 390.68 614.97 389.80 615.21 389.36 C 615.41 388.77 615.82 387.60 616.02 387.02 C 617.85 381.42 620.67 376.06 624.86 371.86 C 628.80 368.14 634.00 366.33 638.66 363.75 C 644.09 363.51 649.56 362.58 654.94 363.89 C 663.41 366.44 670.72 372.64 673.94 380.96 C 676.08 386.04 675.44 391.63 675.52 397.00 C 675.58 401.76 673.67 406.23 671.80 410.51 C 669.11 414.98 665.52 418.77 661.68 422.27 C 658.33 423.92 654.93 425.62 651.19 426.11 C 649.95 426.22 648.76 426.53 647.63 427.03 C 644.96 426.88 642.32 426.43 639.67 426.11 C 638.59 425.95 637.52 425.83 636.46 425.71 C 634.19 424.93 631.96 424.02 629.90 422.80 C 627.07 420.98 624.02 419.50 621.38 417.40 C 620.05 416.36 618.64 415.40 617.25 414.47 C 616.14 411.72 614.86 409.05 613.80 406.29 C 605.43 406.42 596.95 408.56 589.61 412.55 C 586.79 415.30 583.01 416.46 579.81 418.54 C 578.60 419.78 577.42 421.07 576.22 422.32 C 570.62 428.85 562.46 432.09 554.87 435.64 C 549.16 437.58 543.76 440.68 537.66 441.26 C 535.69 442.58 534.38 444.62 533.43 446.75 C 532.50 449.41 531.41 452.01 530.47 454.67 C 529.99 456.08 529.56 457.52 529.08 458.94 C 519.99 485.12 506.91 509.95 489.75 531.75 C 489.48 532.18 488.93 533.04 488.66 533.47 C 487.08 535.32 485.64 537.30 483.90 539.02 C 482.25 540.61 480.50 542.09 478.75 543.57 C 474.81 547.15 470.02 549.81 464.78 550.87 C 461.25 551.85 457.58 550.40 454.67 548.46 C 451.38 545.40 450.51 540.91 449.99 536.65 C 450.12 534.62 450.24 532.60 450.36 530.58 C 452.21 525.70 453.37 520.60 454.74 515.57 C 456.95 508.32 458.68 500.93 460.75 493.64 C 464.14 482.43 465.22 470.64 464.33 458.99 C 464.24 457.40 464.10 455.82 463.94 454.25 C 462.56 441.69 460.16 429.05 454.75 417.55 C 453.44 414.45 452.04 411.38 450.06 408.66 C 446.32 402.30 440.56 397.66 435.46 392.48 C 426.17 384.83 415.14 379.73 404.28 374.74 C 390.87 369.05 376.33 367.55 362.03 365.76 C 358.04 365.32 354.10 364.17 350.06 364.48 C 336.98 365.30 323.95 366.88 311.04 369.08 C 301.74 371.08 292.72 374.32 284.06 378.25 C 277.62 382.13 270.76 385.34 264.57 389.64 C 260.79 392.74 257.02 395.90 253.67 399.46 C 252.80 400.98 251.59 402.24 250.29 403.40 C 250.04 403.87 249.54 404.81 249.29 405.27 C 248.39 406.27 247.46 407.26 246.77 408.42 C 244.85 411.54 243.22 414.83 241.72 418.17 C 236.46 429.32 234.43 441.54 232.70 453.63 C 231.93 462.43 231.73 471.32 232.79 480.10 C 234.65 491.35 238.47 502.15 241.32 513.17 C 243.37 519.16 244.30 525.48 246.64 531.38 C 246.73 533.87 246.83 536.36 246.77 538.86 C 246.13 542.53 244.00 545.60 242.14 548.72 C 241.06 549.14 239.98 549.56 238.91 549.99 C 232.58 553.01 225.63 549.11 220.47 545.43 C 219.48 544.75 218.49 544.08 217.51 543.43 C 215.81 541.87 214.23 540.19 212.62 538.56 C 206.61 532.05 201.42 524.79 196.73 517.29 C 184.00 499.47 174.69 479.44 167.31 458.88 C 166.80 457.49 166.30 456.12 165.80 454.74 C 164.72 451.72 163.77 448.65 162.55 445.69 C 161.96 444.31 161.21 442.96 160.08 441.97 C 158.39 441.45 156.62 441.35 154.91 441.02 C 143.10 436.08 130.48 432.04 120.86 423.21 C 119.52 421.71 118.28 420.12 116.79 418.76 C 111.74 416.54 107.64 412.72 102.64 410.42 C 96.94 407.89 90.72 406.80 84.52 406.62 C 83.05 409.58 80.34 411.99 79.82 415.37 C 78.72 415.95 77.63 416.57 76.56 417.20 C 74.13 418.62 71.80 420.19 69.36 421.59 C 66.52 423.05 63.68 424.51 60.73 425.75 C 59.56 425.85 58.40 425.98 57.23 426.11 C 54.67 426.35 52.12 426.58 49.56 426.82 C 47.94 426.62 46.32 426.36 44.71 426.10 C 41.36 425.36 38.23 423.89 35.16 422.39 C 31.17 419.49 28.15 415.47 25.64 411.26 C 20.79 403.22 19.70 393.18 21.78 384.11 C 24.31 374.81 31.52 366.31 41.18 364.11 C 44.38 363.56 47.62 362.88 50.88 363.22 C 59.74 363.98 68.83 367.36 74.55 374.45 C 77.51 378.55 79.82 383.13 81.48 387.91 C 81.93 389.44 82.27 391.00 82.68 392.54 C 84.34 392.43 86.01 392.33 87.66 392.15 C 90.38 391.86 93.10 391.57 95.81 391.27 C 102.21 390.66 108.31 388.47 114.66 387.52 C 115.41 386.14 115.86 384.62 116.37 383.15 C 117.39 380.39 119.32 378.14 121.32 376.05 C 124.60 372.47 128.56 369.60 132.89 367.43 C 136.20 365.63 139.73 364.23 143.40 363.35 C 148.72 362.67 153.26 359.35 158.68 358.89 C 159.32 358.77 160.61 358.53 161.26 358.41 C 161.71 356.75 162.15 355.09 162.62 353.44 C 164.71 349.11 166.03 344.47 168.09 340.13 C 175.74 323.27 187.89 308.88 201.66 296.67 C 214.90 286.47 228.88 277.14 244.02 269.98 C 244.59 269.77 245.73 269.35 246.30 269.14 C 254.61 265.22 263.12 261.74 271.69 258.42 C 277.14 256.50 282.80 255.21 288.28 253.36 C 290.81 253.06 293.33 252.69 295.84 252.27 C 295.80 250.22 295.32 248.12 295.82 246.10 C 298.16 240.18 301.33 234.38 306.53 230.48 C 314.18 222.09 323.81 215.44 334.50 211.52 C 334.57 208.79 334.47 205.97 335.60 203.42 C 339.03 195.48 341.27 187.06 342.64 178.53 C 342.06 178.34 340.89 177.97 340.31 177.78 C 336.94 176.59 333.66 175.18 330.41 173.69 C 327.89 171.54 325.56 169.17 323.56 166.53 C 321.73 163.36 320.55 159.88 319.18 156.50 C 319.08 156.20 318.87 155.61 318.77 155.32 C 318.48 152.67 318.49 150.01 318.75 147.36 C 318.96 145.63 319.16 143.89 319.45 142.16 C 323.16 130.75 332.69 121.24 344.43 118.37 M 344.09 124.28 C 335.42 127.06 327.87 134.13 325.37 143.02 C 323.63 149.15 323.99 156.08 327.19 161.67 C 330.15 168.25 336.93 172.56 343.90 173.74 C 344.05 171.19 344.09 168.62 344.41 166.08 C 344.51 162.61 349.93 161.93 351.73 164.25 C 352.36 167.43 351.86 170.76 352.22 173.99 C 356.77 173.46 361.11 171.53 364.43 168.35 C 375.40 158.95 374.96 139.26 363.13 130.77 C 358.30 125.88 351.09 121.78 344.09 124.28 M 347.45 167.45 C 344.60 169.83 347.21 173.86 346.73 177.00 C 345.75 181.61 346.50 186.38 345.31 190.96 C 344.15 195.90 342.76 200.81 340.69 205.45 C 340.05 207.00 340.04 208.71 339.83 210.36 C 345.54 210.32 351.26 210.49 356.97 210.23 C 356.97 205.19 353.91 200.93 353.02 196.07 C 350.73 189.62 350.54 182.77 349.94 176.03 C 349.74 172.65 350.26 169.17 349.07 165.93 C 348.66 166.31 347.85 167.07 347.45 167.45 M 322.19 224.13 C 312.90 231.05 304.95 240.08 300.84 251.03 C 308.58 250.84 316.20 248.90 323.97 249.03 C 334.25 249.14 344.54 249.81 354.79 248.76 C 367.86 249.66 381.01 249.45 393.97 251.64 C 395.77 252.05 396.12 249.63 395.58 248.39 C 391.54 238.57 383.47 231.23 375.39 224.69 C 367.22 219.38 357.85 215.23 347.99 214.86 C 338.66 215.32 330.22 219.75 322.19 224.13 M 148.23 367.22 C 143.59 368.05 139.41 370.35 135.12 372.18 C 130.50 374.18 127.03 377.99 123.66 381.60 C 117.17 391.47 116.68 404.79 121.67 415.39 C 127.67 422.73 136.17 427.21 144.36 431.64 C 148.53 433.60 153.10 434.43 157.47 435.85 C 156.28 431.33 157.37 426.66 156.64 422.10 C 152.81 402.78 156.57 383.11 159.93 364.03 C 155.77 364.06 152.28 366.64 148.23 367.22 M 537.96 365.89 C 538.51 369.13 538.88 372.38 539.41 375.62 C 542.38 389.49 541.51 403.82 540.62 417.87 C 540.47 424.00 538.37 429.98 539.17 436.15 C 545.89 434.53 552.42 432.01 558.25 428.26 C 564.52 425.27 570.25 421.03 574.66 415.66 C 580.12 405.79 579.33 393.31 574.48 383.38 C 571.45 379.50 567.93 375.93 563.82 373.20 C 558.56 369.58 551.99 369.10 546.19 366.73 C 543.53 365.91 540.53 363.71 537.96 365.89 M 38.69 370.74 C 30.29 375.44 25.19 385.53 26.61 395.11 C 26.98 403.36 31.15 411.26 37.31 416.67 C 41.73 420.85 48.26 421.31 54.02 421.07 C 61.68 420.72 67.63 415.48 74.01 411.90 C 76.46 410.57 78.05 408.04 78.18 405.26 C 74.70 405.47 70.55 405.86 67.90 403.10 C 65.99 400.28 66.62 396.18 68.94 393.80 C 71.18 392.87 73.66 393.56 75.98 393.69 C 76.21 391.20 76.90 388.56 75.87 386.17 C 73.67 380.54 69.22 376.17 64.83 372.21 C 56.98 367.78 46.90 366.42 38.69 370.74 M 621.18 384.13 C 620.02 387.20 620.08 390.53 620.01 393.76 C 622.52 393.61 625.37 392.69 627.64 394.25 C 629.93 395.99 630.89 399.61 629.02 402.02 C 627.06 406.10 621.97 405.38 618.21 405.61 C 618.61 407.10 618.97 408.70 620.18 409.77 C 624.33 413.98 629.79 416.52 635.02 419.11 C 641.08 421.53 648.22 422.33 654.28 419.44 C 658.79 418.05 661.76 414.25 664.77 410.87 C 669.46 404.69 670.62 396.61 670.60 389.05 C 668.80 379.42 661.82 370.53 651.96 368.33 C 639.76 366.13 626.50 372.89 621.18 384.13 M 105.77 394.71 C 100.42 396.80 94.57 396.17 89.00 397.10 C 83.30 397.45 77.57 396.78 71.85 397.27 C 71.86 398.46 71.88 399.65 71.92 400.84 C 76.94 401.17 81.98 400.79 87.01 400.96 C 96.91 401.87 106.19 406.14 114.05 412.10 C 113.26 405.65 111.59 399.03 113.45 392.60 C 110.82 393.01 108.25 393.73 105.77 394.71 M 583.38 393.17 C 582.83 399.48 584.11 405.90 582.31 412.10 C 589.46 407.19 597.20 402.66 606.01 401.74 C 612.32 400.23 618.68 402.01 625.05 401.75 C 625.13 400.25 625.12 398.76 625.09 397.28 C 613.75 397.22 602.22 397.64 591.14 394.82 C 588.54 394.42 585.97 391.86 583.38 393.17 Z" />
</g>
<g id="#84828dff">
<path fill="#84828d" opacity="1.00" d=" M 344.09 124.28 C 351.09 121.78 358.30 125.88 363.13 130.77 C 374.96 139.26 375.40 158.95 364.43 168.35 C 361.11 171.53 356.77 173.46 352.22 173.99 C 351.86 170.76 352.36 167.43 351.73 164.25 C 349.93 161.93 344.51 162.61 344.41 166.08 C 344.09 168.62 344.05 171.19 343.90 173.74 C 336.93 172.56 330.15 168.25 327.19 161.67 C 323.99 156.08 323.63 149.15 325.37 143.02 C 327.87 134.13 335.42 127.06 344.09 124.28 Z" />
<path fill="#84828d" opacity="1.00" d=" M 322.19 224.13 C 330.22 219.75 338.66 215.32 347.99 214.86 C 357.85 215.23 367.22 219.38 375.39 224.69 C 383.47 231.23 391.54 238.57 395.58 248.39 C 396.12 249.63 395.77 252.05 393.97 251.64 C 381.01 249.45 367.86 249.66 354.79 248.76 C 344.54 249.81 334.25 249.14 323.97 249.03 C 316.20 248.90 308.58 250.84 300.84 251.03 C 304.95 240.08 312.90 231.05 322.19 224.13 Z" />
<path fill="#84828d" opacity="1.00" d=" M 148.23 367.22 C 152.28 366.64 155.77 364.06 159.93 364.03 C 156.57 383.11 152.81 402.78 156.64 422.10 C 157.37 426.66 156.28 431.33 157.47 435.85 C 153.10 434.43 148.53 433.60 144.36 431.64 C 136.17 427.21 127.67 422.73 121.67 415.39 C 116.68 404.79 117.17 391.47 123.66 381.60 C 127.03 377.99 130.50 374.18 135.12 372.18 C 139.41 370.35 143.59 368.05 148.23 367.22 Z" />
<path fill="#84828d" opacity="1.00" d=" M 537.96 365.89 C 540.53 363.71 543.53 365.91 546.19 366.73 C 551.99 369.10 558.56 369.58 563.82 373.20 C 567.93 375.93 571.45 379.50 574.48 383.38 C 579.33 393.31 580.12 405.79 574.66 415.66 C 570.25 421.03 564.52 425.27 558.25 428.26 C 552.42 432.01 545.89 434.53 539.17 436.15 C 538.37 429.98 540.47 424.00 540.62 417.87 C 541.51 403.82 542.38 389.49 539.41 375.62 C 538.88 372.38 538.51 369.13 537.96 365.89 Z" />
<path fill="#84828d" opacity="1.00" d=" M 38.69 370.74 C 46.90 366.42 56.98 367.78 64.83 372.21 C 69.22 376.17 73.67 380.54 75.87 386.17 C 76.90 388.56 76.21 391.20 75.98 393.69 C 73.66 393.56 71.18 392.87 68.94 393.80 C 66.62 396.18 65.99 400.28 67.90 403.10 C 70.55 405.86 74.70 405.47 78.18 405.26 C 78.05 408.04 76.46 410.57 74.01 411.90 C 67.63 415.48 61.68 420.72 54.02 421.07 C 48.26 421.31 41.73 420.85 37.31 416.67 C 31.15 411.26 26.98 403.36 26.61 395.11 C 25.19 385.53 30.29 375.44 38.69 370.74 Z" />
<path fill="#84828d" opacity="1.00" d=" M 621.18 384.13 C 626.50 372.89 639.76 366.13 651.96 368.33 C 661.82 370.53 668.80 379.42 670.60 389.05 C 670.62 396.61 669.46 404.69 664.77 410.87 C 661.76 414.25 658.79 418.05 654.28 419.44 C 648.22 422.33 641.08 421.53 635.02 419.11 C 629.79 416.52 624.33 413.98 620.18 409.77 C 618.97 408.70 618.61 407.10 618.21 405.61 C 621.97 405.38 627.06 406.10 629.02 402.02 C 630.89 399.61 629.93 395.99 627.64 394.25 C 625.37 392.69 622.52 393.61 620.01 393.76 C 620.08 390.53 620.02 387.20 621.18 384.13 Z" />
</g>
<g id="#f69522ff">
<path fill="#f69522" opacity="1.00" d=" M 347.45 167.45 C 347.85 167.07 348.66 166.31 349.07 165.93 C 350.26 169.17 349.74 172.65 349.94 176.03 C 350.54 182.77 350.73 189.62 353.02 196.07 C 353.91 200.93 356.97 205.19 356.97 210.23 C 351.26 210.49 345.54 210.32 339.83 210.36 C 340.04 208.71 340.05 207.00 340.69 205.45 C 342.76 200.81 344.15 195.90 345.31 190.96 C 346.50 186.38 345.75 181.61 346.73 177.00 C 347.21 173.86 344.60 169.83 347.45 167.45 Z" />
<path fill="#f69522" opacity="1.00" d=" M 105.77 394.71 C 108.25 393.73 110.82 393.01 113.45 392.60 C 111.59 399.03 113.26 405.65 114.05 412.10 C 106.19 406.14 96.91 401.87 87.01 400.96 C 81.98 400.79 76.94 401.17 71.92 400.84 C 71.88 399.65 71.86 398.46 71.85 397.27 C 77.57 396.78 83.30 397.45 89.00 397.10 C 94.57 396.17 100.42 396.80 105.77 394.71 Z" />
<path fill="#f69522" opacity="1.00" d=" M 583.38 393.17 C 585.97 391.86 588.54 394.42 591.14 394.82 C 602.22 397.64 613.75 397.22 625.09 397.28 C 625.12 398.76 625.13 400.25 625.05 401.75 C 618.68 402.01 612.32 400.23 606.01 401.74 C 597.20 402.66 589.46 407.19 582.31 412.10 C 584.11 405.90 582.83 399.48 583.38 393.17 Z" />
</g>
<g id="#1b1c1e43">
<path fill="#1b1c1e" opacity="0.26" d=" M 671.25 368.15 C 672.61 367.67 673.14 368.14 672.83 369.56 C 671.45 370.03 670.92 369.56 671.25 368.15 Z" />
</g>
<g id="#18181a39">
<path fill="#18181a" opacity="0.22" d=" M 615.21 389.36 C 613.26 389.05 614.37 386.33 616.02 387.02 C 615.82 387.60 615.41 388.77 615.21 389.36 Z" />
</g>
</svg>
