<?xml version="1.0" encoding="utf-8"?>
<!-- Generator: Adobe Illustrator 14.0.0, SVG Export Plug-In . SVG Version: 6.00 Build 43363)  -->
<!DOCTYPE svg PUBLIC "-//W3C//DTD SVG 1.1//EN" "http://www.w3.org/Graphics/SVG/1.1/DTD/svg11.dtd">
<svg version="1.1" id="Layer_1" xmlns="http://www.w3.org/2000/svg" xmlns:xlink="http://www.w3.org/1999/xlink" x="0px" y="0px"
	 width="600px" height="600px" viewBox="0 0 600 600" style="enable-background:new 0 0 600 600;" xml:space="preserve">
<g>
	<g>
		<path style="fill-rule:evenodd;clip-rule:evenodd;fill:#F69522;" d="M287.286,154.714c1.161-6.138,2.597-11.433,4.714-18.857
			c1.559-5.466,3.815-23.563,14.571-16.714c3.466,2.207,5.848,14.471,7.286,19.714c1.976,7.206,5.938,16.733,4.285,22.714
			c-2.113,7.655-28.961,9.497-31.714,0C285.683,159,286.905,156.728,287.286,154.714z"/>
		<path style="fill-rule:evenodd;clip-rule:evenodd;fill:#6A6D76;" d="M429.143,434.143c-3.786,9.176-10.388,19.732-16.714,28.286
			c-5.154,6.97-12.716,21.412-24,19.714c-7.299-1.098-10.564-9.165-8.571-21.856c4.99-31.789,33.491-62.373,14.143-96.429
			c-6.271-11.038-18.316-22.646-29.571-29.144c-49.524-28.586-125.904-15.354-152.572,27c-21.176,33.634,7.665,66.055,12.857,98.572
			c1.888,11.824-1.007,21.412-8.571,22.285c-9.313,1.075-16.143-9.48-20.572-15c-30.975-38.602-61.234-135.467-21.857-186.857
			c23.688-30.915,72.815-45.808,129.857-45c58.353,0.826,104.399,12.514,128.571,46.714
			C461.657,324.188,447.17,390.456,429.143,434.143z"/>
		<path style="fill-rule:evenodd;clip-rule:evenodd;fill:#F69522;" d="M516.571,310.714c0.364-0.078,0.404,0.168,0.429,0.429
			c9.55,7.334,48.232-0.333,45.429,17.144c-1.567,9.766-28.952,15.826-40.286,18C503.886,349.786,506.756,318.237,516.571,310.714z"
			/>
		<path style="fill-rule:evenodd;clip-rule:evenodd;fill:#84828D;" d="M300.143,80.571c26.388-2.896,22.41,38.999-3,32.572
			C281.912,109.291,282.458,82.512,300.143,80.571z"/>
		<path style="fill-rule:evenodd;clip-rule:evenodd;fill:#84828D;" d="M307.429,177.429c10.677,1.959,22.886,8.613,28.714,15.857
			c3.047,3.787,9.088,12.858,8.571,18c-0.945,9.42-22.721,10.478-33.428,11.143c-15.697,0.975-49.652,0.357-51.429-10.714
			c-1.04-6.477,8.313-18.937,13.286-23.143C280.917,181.996,295.17,175.179,307.429,177.429z"/>
		<path style="fill-rule:evenodd;clip-rule:evenodd;fill:#84828D;" d="M125.714,295.286c7.65,0.008,12.889,25.76,12.429,40.286
			c-0.258,8.147-3.183,23.026-8.143,24.429c-7.075,2.001-20.992-7.947-24-11.143c-18.505-19.653,4.596-47.756,18.857-53.143
			C125.121,295.615,125.18,295.285,125.714,295.286z"/>
		<path style="fill-rule:evenodd;clip-rule:evenodd;fill:#84828D;" d="M17.714,309.857c18.902-2.167,25.317,22.657,8.571,30
			c-9.361,4.104-22.257-0.529-22.714-12.429C3.213,318.113,10.148,310.725,17.714,309.857z"/>
		<path style="fill-rule:evenodd;clip-rule:evenodd;fill:#84828D;" d="M574,311.571c14.847-5.699,30.868,10.869,20.571,24
			c-8.95,11.414-32.157,3.529-29.143-14.143C566.023,317.942,569.165,313.428,574,311.571z"/>
		<path style="fill-rule:evenodd;clip-rule:evenodd;fill:#84828D;" d="M478.429,294.857c0.539-0.074,0.201,0.338,0.429,0.429
			c11.066,4.42,22.884,13.709,25.285,27c1.686,9.321-0.401,21.036-5.571,26.571c-4.16,4.453-16.063,12.727-23.143,11.143
			c-5.986-1.34-8.935-15.431-9-26.143C466.358,322.36,470.625,295.935,478.429,294.857z"/>
		<path style="fill-rule:evenodd;clip-rule:evenodd;fill:#84828D;" d="M331.429,351.857c12.455,2.17-8.018,13.112-9.429,17.143
			c-0.736,2.103-1.265,11.47,0.857,14.143c1.979,2.495,10.52,2.799,13.714,2.144c5.887-1.209,11.2-14.248,15.857-12.857
			c4.649,1.388,2.596,13.54,1.714,17.143c-3.22,13.166-13.854,21.885-30.856,20.143c-31.437-3.22-36.314-54.131-3-57.856
			C323.143,351.537,328.018,351.263,331.429,351.857z"/>
		<path style="fill-rule:evenodd;clip-rule:evenodd;fill:#84828D;" d="M290.714,393.857c2.516,0.406,5.21,9.171,7.714,12
			c2.932,3.312,11.624,5.834,12.429,8.143c1.049,3.012-10.163,11.468-11.143,12.429c-9.114,8.934-15.715,14.001-24.429,22.714
			c-3.145,3.146-8.606,9.98-12.857,10.286c-7.67,0.55-19.489-11.362-18.857-19.715c0.523-6.914,15.747-17.289,22.286-23.571
			c9.148-8.787,16.095-16.978,24-21.856C290.096,394.139,290.194,393.773,290.714,393.857z"/>
		<path style="fill-rule:evenodd;clip-rule:evenodd;fill:#F69522;" d="M68.286,314.571c6.361-0.976,13.042-3.916,18.429-1.714
			c8.729,3.567,6.571,32.111-2.143,33.856c-7.91,1.585-38.147-8.682-42.857-12.856C26.292,320.186,56.769,316.339,68.286,314.571z"
			/>
	</g>
</g>
</svg>
